<svg xmlns="http://www.w3.org/2000/svg" viewBox="-41.1 -9.4 82.2 18.8" width="1400"><rect x="-41.1" y="-9.4" width="82.2" height="18.8" fill="#f0f0e9"/><path d="M-36.70,-5.50L-36.70,-5.50 M-36.70,-5.50L-37.00,-5.50 M-37.00,-5.50L-36.70,-5.50 M-36.70,-5.50L-37.00,-5.50 M-37.00,-5.50L-34.90,-5.50 M-34.90,-5.50L-32.90,-5.50 M-32.90,-5.50L-30.80,-5.50 M-30.80,-5.50L-28.80,-5.50 M-28.80,-5.50L-26.70,-5.50 M-26.70,-5.50L-26.70,-4.30 M-26.70,-4.30L-28.90,-4.30 M-28.90,-4.30L-31.10,-4.30 M-31.10,-4.30L-33.30,-4.30 M-33.30,-4.30L-35.50,-4.30 M-35.50,-4.30L-37.70,-4.30 M-37.70,-4.30L-37.80,-3.10 M-37.80,-3.10L-35.90,-3.10 M-35.90,-3.10L-34.00,-3.10 M-34.00,-3.10L-34.50,-1.90 M-34.50,-1.90L-36.20,-1.90 M-36.20,-1.90L-37.80,-1.90 M-37.80,-1.90L-37.70,-0.70 M-37.70,-0.70L-36.20,-0.70 M-36.20,-0.70L-34.60,-0.70 M-34.60,-0.70L-35.20,-2.50 M-35.20,-2.50L-35.70,-4.30 M-35.70,-4.30L-36.20,-6.10 M-36.20,-6.10L-36.50,-6.10 M-36.50,-6.10L-36.70,-5.90 M-36.70,-5.90L-37.10,-5.70 M-37.10,-5.70L-37.40,-5.50 M-37.40,-5.50L-37.50,-5.30 M-37.50,-5.30L-37.50,-5.10 M-37.50,-5.10L-37.70,-5.10 M-37.70,-5.10L-37.80,-4.90 M-37.80,-4.90L-37.90,-4.60 M-37.90,-4.60L-38.00,-4.20 M-38.00,-4.20L-38.00,-4.20 M-38.00,-4.20L-38.00,-3.80 M-38.00,-3.80L-38.10,-3.80 M-38.10,-3.80L-38.10,-2.40 M-38.10,-2.40L-38.10,-0.90 M-38.10,-0.90L-38.00,-0.90 M-38.00,-0.90L-38.00,-0.50 M-38.00,-0.50L-37.60,-0.30 M-37.60,-0.30L-37.30,-0.30 M-37.30,-0.30L-37.30,-0.20 M-37.30,-0.20L-35.00,-0.20 M-35.00,-0.20L-35.00,-0.30 M-35.00,-0.30L-34.80,-0.30 M-34.80,-0.30L-34.60,-0.30 M-34.60,-0.30L-34.40,-0.60 M-34.40,-0.60L-34.30,-0.90 M-34.30,-0.90L-34.30,-2.10 M-34.30,-2.10L-34.20,-2.50 M-34.20,-2.50L-34.00,-2.70 M-34.00,-2.70L-33.80,-2.90 M-33.80,-2.90L-33.30,-3.00 M-33.30,-3.00L-33.30,-3.10 M-33.30,-3.10L-31.10,-3.10 M-31.10,-3.10L-28.80,-3.10 M-28.80,-3.10L-26.50,-3.10 M-26.50,-3.10L-26.50,-4.70 M-26.50,-4.70L-26.50,-6.30 M-26.50,-6.30L-26.50,-6.30 M-26.50,-6.30L-28.80,-6.30 M-28.80,-6.30L-31.00,-6.30 M-31.00,-6.30L-33.20,-6.30 M-33.20,-6.30L-35.50,-6.30 M-35.50,-6.30L-35.50,-6.30 M-35.50,-6.30L-35.90,-6.30 M-35.90,-6.30L-36.20,-6.10 M-36.20,-6.10L-33.80,-6.10 M-33.80,-6.10L-31.30,-6.10 M-31.30,-6.10L-28.90,-6.10 M-28.90,-6.10L-26.50,-6.10 M-26.50,-6.10L-26.50,-5.70 M-26.50,-5.70L-28.60,-5.70 M-28.60,-5.70L-30.70,-5.70 M-30.70,-5.70L-32.80,-5.70 M-32.80,-5.70L-34.90,-5.70 M-34.90,-5.70L-37.00,-5.70 M-37.00,-5.70L-37.50,-5.30 M-37.50,-5.30L-35.30,-5.30 M-35.30,-5.30L-33.10,-5.30 M-33.10,-5.30L-30.90,-5.30 M-30.90,-5.30L-28.70,-5.30 M-28.70,-5.30L-26.50,-5.30 M-26.50,-5.30L-26.50,-4.90 M-26.50,-4.90L-28.70,-4.90 M-28.70,-4.90L-31.00,-4.90 M-31.00,-4.90L-33.20,-4.90 M-33.20,-4.90L-35.50,-4.90 M-35.50,-4.90L-37.70,-4.90 M-37.70,-4.90L-37.90,-4.50 M-37.90,-4.50L-35.60,-4.50 M-35.60,-4.50L-33.30,-4.50 M-33.30,-4.50L-31.10,-4.50 M-31.10,-4.50L-28.80,-4.50 M-28.80,-4.50L-26.50,-4.50 M-26.50,-4.50L-26.50,-4.10 M-26.50,-4.10L-28.80,-4.10 M-28.80,-4.10L-31.10,-4.10 M-31.10,-4.10L-33.40,-4.10 M-33.40,-4.10L-35.70,-4.10 M-35.70,-4.10L-38.00,-4.10 M-38.00,-4.10L-38.00,-3.80 M-38.00,-3.80L-38.10,-3.70 M-38.10,-3.70L-35.80,-3.70 M-35.80,-3.70L-33.40,-3.70 M-33.40,-3.70L-31.10,-3.70 M-31.10,-3.70L-28.80,-3.70 M-28.80,-3.70L-26.50,-3.70 M-26.50,-3.70L-26.50,-3.30 M-26.50,-3.30L-28.80,-3.30 M-28.80,-3.30L-31.10,-3.30 M-31.10,-3.30L-33.40,-3.30 M-33.40,-3.30L-35.80,-3.30 M-35.80,-3.30L-38.10,-3.30 M-38.10,-3.30L-38.10,-2.90 M-38.10,-2.90L-35.90,-2.90 M-35.90,-2.90L-33.70,-2.90 M-33.70,-2.90L-33.80,-2.90 M-33.80,-2.90L-34.00,-2.70 M-34.00,-2.70L-34.20,-2.50 M-34.20,-2.50L-36.10,-2.50 M-36.10,-2.50L-38.10,-2.50 M-38.10,-2.50L-38.10,-2.10 M-38.10,-2.10L-36.20,-2.10 M-36.20,-2.10L-34.30,-2.10 M-34.30,-2.10L-34.30,-1.70 M-34.30,-1.70L-36.20,-1.70 M-36.20,-1.70L-38.10,-1.70 M-38.10,-1.70L-38.10,-1.30 M-38.10,-1.30L-36.20,-1.30 M-36.20,-1.30L-34.30,-1.30 M-34.30,-1.30L-34.30,-0.90 M-34.30,-0.90L-36.20,-0.90 M-36.20,-0.90L-38.00,-0.90 M-38.00,-0.90L-37.90,-0.50 M-37.90,-0.50L-36.20,-0.50 M-36.20,-0.50L-34.40,-0.50 M-34.40,-0.50L-34.40,-0.80 M-34.40,-0.80L-34.40,-0.50 M-34.40,-0.50L-34.40,-0.80 M-29.10,1.20L-29.10,1.20 M-29.10,1.20L-29.40,1.20 M-29.40,1.20L-29.10,1.20 M-29.10,1.20L-29.40,1.20 M-29.40,1.20L-27.70,1.20 M-27.70,1.20L-26.10,1.20 M-26.10,1.20L-26.00,2.40 M-26.00,2.40L-27.80,2.40 M-27.80,2.40L-29.50,2.40 M-29.50,2.40L-30.20,2.90 M-30.20,2.90L-30.60,3.00 M-30.60,3.00L-33.00,3.20 M-33.00,3.20L-35.40,3.40 M-35.40,3.40L-37.80,3.60 M-37.80,3.60L-35.50,3.60 M-35.50,3.60L-33.10,3.60 M-33.10,3.60L-30.80,3.60 M-30.80,3.60L-28.40,3.60 M-28.40,3.60L-26.00,3.60 M-26.00,3.60L-26.30,4.80 M-26.30,4.80L-28.60,4.80 M-28.60,4.80L-30.90,4.80 M-30.90,4.80L-33.20,4.80 M-33.20,4.80L-35.50,4.80 M-35.50,4.80L-37.80,4.80 M-37.80,4.80L-37.80,6.00 M-37.80,6.00L-35.80,6.00 M-35.80,6.00L-33.80,6.00 M-33.80,6.00L-31.80,6.00 M-31.80,6.00L-29.80,6.00 M-29.80,6.00L-27.80,6.00 M-27.80,6.00L-28.40,4.20 M-28.40,4.20L-28.90,2.40 M-28.90,2.40L-29.50,0.60 M-29.50,0.60L-29.60,0.70 M-29.60,0.70L-29.70,2.10 M-29.70,2.10L-29.70,2.10 M-29.70,2.10L-29.80,2.40 M-29.80,2.40L-29.90,2.50 M-29.90,2.50L-30.00,2.70 M-30.00,2.70L-30.20,2.70 M-30.20,2.70L-30.20,2.90 M-30.20,2.90L-30.60,2.90 M-30.60,2.90L-30.60,3.00 M-30.60,3.00L-32.50,3.00 M-32.50,3.00L-34.30,3.00 M-34.30,3.00L-36.20,3.00 M-36.20,3.00L-38.10,3.00 M-38.10,3.00L-38.10,4.70 M-38.10,4.70L-38.10,6.30 M-38.10,6.30L-36.10,6.30 M-36.10,6.30L-34.00,6.30 M-34.00,6.30L-32.00,6.30 M-32.00,6.30L-30.00,6.30 M-30.00,6.30L-28.00,6.30 M-28.00,6.30L-28.00,6.20 M-28.00,6.20L-27.70,6.20 M-27.70,6.20L-27.70,6.20 M-27.70,6.20L-27.50,6.20 M-27.50,6.20L-27.10,6.00 M-27.10,6.00L-26.60,5.50 M-26.60,5.50L-26.10,5.00 M-26.10,5.00L-25.90,4.60 M-25.90,4.60L-25.80,4.10 M-25.80,4.10L-25.80,4.10 M-25.80,4.10L-25.80,2.60 M-25.80,2.60L-25.80,1.10 M-25.80,1.10L-25.80,1.10 M-25.80,1.10L-25.80,0.90 M-25.80,0.90L-26.20,0.50 M-26.20,0.50L-26.50,0.40 M-26.50,0.40L-26.50,0.30 M-26.50,0.30L-29.00,0.30 M-29.00,0.30L-29.40,0.50 M-29.40,0.50L-29.50,0.60 M-29.50,0.60L-29.50,0.60 M-29.50,0.60L-29.40,0.50 M-29.40,0.50L-27.80,0.50 M-27.80,0.50L-26.20,0.50 M-26.20,0.50L-25.80,0.90 M-25.80,0.90L-27.70,0.90 M-27.70,0.90L-29.60,0.90 M-29.60,0.90L-29.60,1.30 M-29.60,1.30L-27.70,1.30 M-27.70,1.30L-25.80,1.30 M-25.80,1.30L-25.80,1.70 M-25.80,1.70L-27.70,1.70 M-27.70,1.70L-29.60,1.70 M-29.60,1.70L-29.70,2.10 M-29.70,2.10L-27.70,2.10 M-27.70,2.10L-25.80,2.10 M-25.80,2.10L-25.80,2.50 M-25.80,2.50L-27.90,2.50 M-27.90,2.50L-29.90,2.50 M-29.90,2.50L-30.00,2.70 M-30.00,2.70L-30.20,2.90 M-30.20,2.90L-30.40,2.90 M-30.40,2.90L-28.10,2.90 M-28.10,2.90L-25.80,2.90 M-25.80,2.90L-25.80,3.30 M-25.80,3.30L-28.20,3.30 M-28.20,3.30L-30.70,3.30 M-30.70,3.30L-33.20,3.30 M-33.20,3.30L-35.60,3.30 M-35.60,3.30L-38.10,3.30 M-38.10,3.30L-38.10,3.70 M-38.10,3.70L-35.60,3.70 M-35.60,3.70L-33.20,3.70 M-33.20,3.70L-30.70,3.70 M-30.70,3.70L-28.20,3.70 M-28.20,3.70L-25.80,3.70 M-25.80,3.70L-25.90,4.10 M-25.90,4.10L-28.30,4.10 M-28.30,4.10L-30.80,4.10 M-30.80,4.10L-33.20,4.10 M-33.20,4.10L-35.70,4.10 M-35.70,4.10L-38.10,4.10 M-38.10,4.10L-38.10,4.50 M-38.10,4.50L-35.70,4.50 M-35.70,4.50L-33.20,4.50 M-33.20,4.50L-30.80,4.50 M-30.80,4.50L-28.30,4.50 M-28.30,4.50L-25.90,4.50 M-25.90,4.50L-26.10,4.90 M-26.10,4.90L-28.50,4.90 M-28.50,4.90L-30.90,4.90 M-30.90,4.90L-33.30,4.90 M-33.30,4.90L-35.70,4.90 M-35.70,4.90L-38.10,4.90 M-38.10,4.90L-38.10,5.30 M-38.10,5.30L-35.80,5.30 M-35.80,5.30L-33.40,5.30 M-33.40,5.30L-31.10,5.30 M-31.10,5.30L-28.70,5.30 M-28.70,5.30L-26.40,5.30 M-26.40,5.30L-26.80,5.70 M-26.80,5.70L-29.10,5.70 M-29.10,5.70L-31.30,5.70 M-31.30,5.70L-33.60,5.70 M-33.60,5.70L-35.80,5.70 M-35.80,5.70L-38.10,5.70 M-38.10,5.70L-38.10,6.10 M-38.10,6.10L-36.00,6.10 M-36.00,6.10L-33.80,6.10 M-33.80,6.10L-31.70,6.10 M-31.70,6.10L-29.50,6.10 M-29.50,6.10L-27.40,6.10 M-27.40,6.10L-27.60,6.00 M-27.60,6.00L-27.40,6.10 M-27.40,6.10L-27.60,6.00 M-24.30,-2.00L-24.30,-2.00 M-24.30,-2.00L-24.60,-2.00 M-24.60,-2.00L-24.30,-2.00 M-24.30,-2.00L-24.60,-2.00 M-24.60,-2.00L-22.40,-2.00 M-22.40,-2.00L-20.10,-2.00 M-20.10,-2.00L-17.90,-2.00 M-17.90,-2.00L-17.40,-2.00 M-17.40,-2.00L-15.70,-2.00 M-15.70,-2.00L-14.00,-2.00 M-14.00,-2.00L-12.30,-2.00 M-12.30,-2.00L-11.50,-0.80 M-11.50,-0.80L-13.70,-0.80 M-13.70,-0.80L-15.90,-0.80 M-15.90,-0.80L-18.00,-0.80 M-18.00,-0.80L-20.20,-0.80 M-20.20,-0.80L-22.40,-0.80 M-22.40,-0.80L-24.60,-0.80 M-24.60,-0.80L-24.60,0.40 M-24.60,0.40L-23.30,0.40 M-23.30,0.40L-22.00,0.40 M-22.00,0.40L-21.50,-0.10 M-21.50,-0.10L-21.30,-0.20 M-21.30,-0.20L-21.00,-0.30 M-21.00,-0.30L-20.30,-0.30 M-20.30,-0.30L-19.80,-0.10 M-19.80,-0.10L-19.30,0.40 M-19.30,0.40L-18.00,0.40 M-18.00,0.40L-16.70,0.40 M-16.70,0.40L-16.30,0.00 M-16.30,0.00L-16.00,-0.20 M-16.00,-0.20L-15.00,-0.30 M-15.00,-0.30L-14.70,-0.30 M-14.70,-0.30L-14.50,-0.20 M-14.50,-0.20L-13.90,0.40 M-13.90,0.40L-12.60,0.40 M-12.60,0.40L-11.30,0.40 M-11.30,0.40L-11.30,1.60 M-11.30,1.60L-12.60,1.60 M-12.60,1.60L-13.90,1.60 M-13.90,1.60L-14.20,0.30 M-14.20,0.30L-14.20,0.10 M-14.20,0.10L-14.50,-0.20 M-14.50,-0.20L-14.70,-0.30 M-14.70,-0.30L-15.00,-0.30 M-15.00,-0.30L-16.00,-0.20 M-16.00,-0.20L-16.30,0.00 M-16.30,0.00L-16.50,0.30 M-16.50,0.30L-16.70,1.60 M-16.70,1.60L-18.00,1.60 M-18.00,1.60L-19.30,1.60 M-19.30,1.60L-19.50,0.40 M-19.50,0.40L-19.70,0.00 M-19.70,0.00L-19.80,-0.10 M-19.80,-0.10L-20.30,-0.30 M-20.30,-0.30L-21.00,-0.30 M-21.00,-0.30L-21.30,-0.20 M-21.30,-0.20L-21.50,-0.10 M-21.50,-0.10L-21.70,0.10 M-21.70,0.10L-21.80,0.30 M-21.80,0.30L-22.00,1.60 M-22.00,1.60L-23.30,1.60 M-23.30,1.60L-24.60,1.60 M-24.60,1.60L-24.60,2.80 M-24.60,2.80L-23.30,2.80 M-23.30,2.80L-22.00,2.80 M-22.00,2.80L-21.90,1.60 M-21.90,1.60L-21.80,0.30 M-21.80,0.30L-21.70,0.10 M-21.70,0.10L-21.50,-0.10 M-21.50,-0.10L-21.30,-0.20 M-21.30,-0.20L-21.00,-0.30 M-21.00,-0.30L-20.30,-0.30 M-20.30,-0.30L-19.80,-0.10 M-19.80,-0.10L-19.70,0.00 M-19.70,0.00L-19.50,0.40 M-19.50,0.40L-19.30,2.80 M-19.30,2.80L-18.00,2.80 M-18.00,2.80L-16.70,2.80 M-16.70,2.80L-16.60,1.60 M-16.60,1.60L-16.50,0.30 M-16.50,0.30L-16.30,0.00 M-16.30,0.00L-16.00,-0.20 M-16.00,-0.20L-15.00,-0.30 M-15.00,-0.30L-14.70,-0.30 M-14.70,-0.30L-14.50,-0.20 M-14.50,-0.20L-14.20,0.10 M-14.20,0.10L-14.20,0.30 M-14.20,0.30L-14.00,1.60 M-14.00,1.60L-13.90,2.80 M-13.90,2.80L-12.60,2.80 M-12.60,2.80L-11.30,2.80 M-11.30,2.80L-11.30,4.00 M-11.30,4.00L-12.60,4.00 M-12.60,4.00L-13.90,4.00 M-13.90,4.00L-14.00,2.20 M-14.00,2.20L-14.20,0.30 M-14.20,0.30L-14.20,0.10 M-14.20,0.10L-14.50,-0.20 M-14.50,-0.20L-14.70,-0.30 M-14.70,-0.30L-15.00,-0.30 M-15.00,-0.30L-16.00,-0.20 M-16.00,-0.20L-16.30,0.00 M-16.30,0.00L-16.50,0.30 M-16.50,0.30L-16.60,2.20 M-16.60,2.20L-16.70,4.00 M-16.70,4.00L-18.00,4.00 M-18.00,4.00L-19.30,4.00 M-19.30,4.00L-19.40,2.20 M-19.40,2.20L-19.50,0.40 M-19.50,0.40L-19.70,0.00 M-19.70,0.00L-19.80,-0.10 M-19.80,-0.10L-20.30,-0.30 M-20.30,-0.30L-21.00,-0.30 M-21.00,-0.30L-21.30,-0.20 M-21.30,-0.20L-21.50,-0.10 M-21.50,-0.10L-21.70,0.10 M-21.70,0.10L-21.80,0.30 M-21.80,0.30L-21.90,2.20 M-21.90,2.20L-22.00,4.00 M-22.00,4.00L-23.30,4.00 M-23.30,4.00L-24.60,4.00 M-24.60,4.00L-24.60,5.20 M-24.60,5.20L-23.30,5.20 M-23.30,5.20L-22.00,5.20 M-22.00,5.20L-21.90,2.80 M-21.90,2.80L-21.80,0.30 M-21.80,0.30L-21.70,0.10 M-21.70,0.10L-21.50,-0.10 M-21.50,-0.10L-21.30,-0.20 M-21.30,-0.20L-21.00,-0.30 M-21.00,-0.30L-20.30,-0.30 M-20.30,-0.30L-19.80,-0.10 M-19.80,-0.10L-19.70,0.00 M-19.70,0.00L-19.50,0.40 M-19.50,0.40L-19.40,2.80 M-19.40,2.80L-19.30,5.20 M-19.30,5.20L-18.00,5.20 M-18.00,5.20L-16.70,5.20 M-16.70,5.20L-16.60,2.80 M-16.60,2.80L-16.50,0.30 M-16.50,0.30L-16.30,0.00 M-16.30,0.00L-16.00,-0.20 M-16.00,-0.20L-15.00,-0.30 M-15.00,-0.30L-14.70,-0.30 M-14.70,-0.30L-14.50,-0.20 M-14.50,-0.20L-14.20,0.10 M-14.20,0.10L-14.20,0.30 M-14.20,0.30L-14.00,2.80 M-14.00,2.80L-13.90,5.20 M-13.90,5.20L-12.60,5.20 M-12.60,5.20L-11.30,5.20 M-11.30,5.20L-12.30,3.50 M-12.30,3.50L-13.30,1.80 M-13.30,1.80L-14.20,0.10 M-14.20,0.10L-14.50,-0.20 M-14.50,-0.20L-14.70,-0.30 M-14.70,-0.30L-16.70,-0.80 M-16.70,-0.80L-18.70,-1.30 M-18.70,-1.30L-20.70,-1.80 M-20.70,-1.80L-22.70,-2.30 M-22.70,-2.30L-24.70,-2.80 M-24.70,-2.80L-24.80,-2.80 M-24.80,-2.80L-24.80,-0.50 M-24.80,-0.50L-24.80,1.80 M-24.80,1.80L-24.80,4.00 M-24.80,4.00L-24.80,6.30 M-24.80,6.30L-23.30,6.30 M-23.30,6.30L-21.80,6.30 M-21.80,6.30L-21.80,4.30 M-21.80,4.30L-21.80,2.30 M-21.80,2.30L-21.80,0.30 M-21.80,0.30L-21.70,0.10 M-21.70,0.10L-21.50,-0.10 M-21.50,-0.10L-21.30,-0.20 M-21.30,-0.20L-21.00,-0.30 M-21.00,-0.30L-21.00,-0.30 M-21.00,-0.30L-20.40,-0.30 M-20.40,-0.30L-20.30,-0.30 M-20.30,-0.30L-20.30,-0.30 M-20.30,-0.30L-19.80,-0.10 M-19.80,-0.10L-19.70,0.00 M-19.70,0.00L-19.60,0.40 M-19.60,0.40L-19.50,0.40 M-19.50,0.40L-19.50,2.40 M-19.50,2.40L-19.50,4.30 M-19.50,4.30L-19.50,6.30 M-19.50,6.30L-18.00,6.30 M-18.00,6.30L-16.50,6.30 M-16.50,6.30L-16.50,4.30 M-16.50,4.30L-16.50,2.30 M-16.50,2.30L-16.50,0.30 M-16.50,0.30L-16.30,0.00 M-16.30,0.00L-16.00,-0.20 M-16.00,-0.20L-15.00,-0.30 M-15.00,-0.30L-15.00,-0.30 M-15.00,-0.30L-14.70,-0.30 M-14.70,-0.30L-14.50,-0.20 M-14.50,-0.20L-14.20,0.10 M-14.20,0.10L-14.20,0.30 M-14.20,0.30L-14.20,2.30 M-14.20,2.30L-14.20,4.30 M-14.20,4.30L-14.20,6.30 M-14.20,6.30L-13.40,6.40 M-13.40,6.40L-13.40,6.30 M-13.40,6.30L-11.00,6.30 M-11.00,6.30L-11.00,4.20 M-11.00,4.20L-11.00,2.10 M-11.00,2.10L-11.00,0.00 M-11.00,0.00L-11.10,0.00 M-11.10,0.00L-11.10,-0.50 M-11.10,-0.50L-11.20,-0.50 M-11.20,-0.50L-11.20,-0.80 M-11.20,-0.80L-11.20,-0.80 M-11.20,-0.80L-11.40,-1.40 M-11.40,-1.40L-11.50,-1.40 M-11.50,-1.40L-11.60,-1.70 M-11.60,-1.70L-12.40,-2.40 M-12.40,-2.40L-12.80,-2.60 M-12.80,-2.60L-13.50,-2.70 M-13.50,-2.70L-13.50,-2.80 M-13.50,-2.80L-14.50,-2.80 M-14.50,-2.80L-14.50,-2.80 M-14.50,-2.80L-15.40,-2.80 M-15.40,-2.80L-15.60,-2.80 M-15.60,-2.80L-15.60,-2.80 M-15.60,-2.80L-16.20,-2.80 M-16.20,-2.80L-16.20,-2.70 M-16.20,-2.70L-16.90,-2.50 M-16.90,-2.50L-17.70,-2.10 M-17.70,-2.10L-17.90,-2.30 M-17.90,-2.30L-18.20,-2.50 M-18.20,-2.50L-18.60,-2.60 M-18.60,-2.60L-19.00,-2.70 M-19.00,-2.70L-19.00,-2.80 M-19.00,-2.80L-21.40,-2.80 M-21.40,-2.80L-23.80,-2.80 M-23.80,-2.80L-23.80,-2.80 M-23.80,-2.80L-24.70,-2.80 M-24.70,-2.80L-24.80,-2.60 M-24.80,-2.60L-22.70,-2.60 M-22.70,-2.60L-20.60,-2.60 M-20.60,-2.60L-18.50,-2.60 M-18.50,-2.60L-17.70,-2.10 M-17.70,-2.10L-16.50,-2.60 M-16.50,-2.60L-14.80,-2.60 M-14.80,-2.60L-13.10,-2.60 M-13.10,-2.60L-12.20,-2.20 M-12.20,-2.20L-13.90,-2.20 M-13.90,-2.20L-15.70,-2.20 M-15.70,-2.20L-17.40,-2.20 M-17.40,-2.20L-17.70,-2.10 M-17.70,-2.10L-17.80,-2.20 M-17.80,-2.20L-20.20,-2.20 M-20.20,-2.20L-22.50,-2.20 M-22.50,-2.20L-24.80,-2.20 M-24.80,-2.20L-24.80,-1.80 M-24.80,-1.80L-22.70,-1.80 M-22.70,-1.80L-20.50,-1.80 M-20.50,-1.80L-18.30,-1.80 M-18.30,-1.80L-16.10,-1.80 M-16.10,-1.80L-13.90,-1.80 M-13.90,-1.80L-11.70,-1.80 M-11.70,-1.80L-11.50,-1.40 M-11.50,-1.40L-11.50,-1.40 M-11.50,-1.40L-13.70,-1.40 M-13.70,-1.40L-15.90,-1.40 M-15.90,-1.40L-18.20,-1.40 M-18.20,-1.40L-20.40,-1.40 M-20.40,-1.40L-22.60,-1.40 M-22.60,-1.40L-24.80,-1.40 M-24.80,-1.40L-24.80,-1.00 M-24.80,-1.00L-22.60,-1.00 M-22.60,-1.00L-20.30,-1.00 M-20.30,-1.00L-18.10,-1.00 M-18.10,-1.00L-15.80,-1.00 M-15.80,-1.00L-13.60,-1.00 M-13.60,-1.00L-11.30,-1.00 M-11.30,-1.00L-11.20,-0.60 M-11.20,-0.60L-13.40,-0.60 M-13.40,-0.60L-15.70,-0.60 M-15.70,-0.60L-18.00,-0.60 M-18.00,-0.60L-20.30,-0.60 M-20.30,-0.60L-22.60,-0.60 M-22.60,-0.60L-24.80,-0.60 M-24.80,-0.60L-24.80,-0.20 M-24.80,-0.20L-23.10,-0.20 M-23.10,-0.20L-21.30,-0.20 M-21.30,-0.20L-21.00,-0.30 M-21.00,-0.30L-20.30,-0.30 M-20.30,-0.30L-20.20,-0.20 M-20.20,-0.20L-18.10,-0.20 M-18.10,-0.20L-16.00,-0.20 M-16.00,-0.20L-16.00,-0.20 M-16.00,-0.20L-15.00,-0.30 M-15.00,-0.30L-14.60,-0.20 M-14.60,-0.20L-12.90,-0.20 M-12.90,-0.20L-11.10,-0.20 M-11.10,-0.20L-11.10,0.00 M-11.10,0.00L-11.00,0.20 M-11.00,0.20L-12.60,0.20 M-12.60,0.20L-14.20,0.20 M-14.20,0.20L-14.20,0.10 M-14.20,0.10L-14.50,-0.20 M-14.50,-0.20L-14.70,-0.30 M-14.70,-0.30L-15.00,-0.30 M-15.00,-0.30L-16.00,-0.20 M-16.00,-0.20L-16.30,0.00 M-16.30,0.00L-16.40,0.20 M-16.40,0.20L-18.00,0.20 M-18.00,0.20L-19.60,0.20 M-19.60,0.20L-19.70,0.00 M-19.70,0.00L-19.80,-0.10 M-19.80,-0.10L-20.30,-0.30 M-20.30,-0.30L-21.00,-0.30 M-21.00,-0.30L-21.30,-0.20 M-21.30,-0.20L-21.50,-0.10 M-21.50,-0.10L-21.70,0.10 M-21.70,0.10L-21.70,0.20 M-21.70,0.20L-23.30,0.20 M-23.30,0.20L-24.80,0.20 M-24.80,0.20L-24.80,0.60 M-24.80,0.60L-23.30,0.60 M-23.30,0.60L-21.80,0.60 M-21.80,0.60L-21.80,0.30 M-21.80,0.30L-21.70,0.10 M-21.70,0.10L-21.50,-0.10 M-21.50,-0.10L-21.30,-0.20 M-21.30,-0.20L-21.00,-0.30 M-21.00,-0.30L-20.30,-0.30 M-20.30,-0.30L-19.80,-0.10 M-19.80,-0.10L-19.70,0.00 M-19.70,0.00L-19.50,0.40 M-19.50,0.40L-19.50,0.60 M-19.50,0.60L-18.00,0.60 M-18.00,0.60L-16.50,0.60 M-16.50,0.60L-16.50,0.30 M-16.50,0.30L-16.30,0.00 M-16.30,0.00L-16.00,-0.20 M-16.00,-0.20L-15.00,-0.30 M-15.00,-0.30L-14.70,-0.30 M-14.70,-0.30L-14.50,-0.20 M-14.50,-0.20L-14.20,0.10 M-14.20,0.10L-14.20,0.30 M-14.20,0.30L-14.20,0.60 M-14.20,0.60L-12.60,0.60 M-12.60,0.60L-11.00,0.60 M-11.00,0.60L-11.00,1.00 M-11.00,1.00L-12.60,1.00 M-12.60,1.00L-14.20,1.00 M-14.20,1.00L-14.20,0.30 M-14.20,0.30L-14.20,0.10 M-14.20,0.10L-14.50,-0.20 M-14.50,-0.20L-14.70,-0.30 M-14.70,-0.30L-15.00,-0.30 M-15.00,-0.30L-16.00,-0.20 M-16.00,-0.20L-16.30,0.00 M-16.30,0.00L-16.50,0.30 M-16.50,0.30L-16.50,1.00 M-16.50,1.00L-18.00,1.00 M-18.00,1.00L-19.50,1.00 M-19.50,1.00L-19.50,0.40 M-19.50,0.40L-19.70,0.00 M-19.70,0.00L-19.80,-0.10 M-19.80,-0.10L-20.30,-0.30 M-20.30,-0.30L-21.00,-0.30 M-21.00,-0.30L-21.30,-0.20 M-21.30,-0.20L-21.50,-0.10 M-21.50,-0.10L-21.70,0.10 M-21.70,0.10L-21.80,0.30 M-21.80,0.30L-21.80,1.00 M-21.80,1.00L-23.30,1.00 M-23.30,1.00L-24.80,1.00 M-24.80,1.00L-24.80,1.40 M-24.80,1.40L-23.30,1.40 M-23.30,1.40L-21.80,1.40 M-21.80,1.40L-21.80,0.30 M-21.80,0.30L-21.70,0.10 M-21.70,0.10L-21.50,-0.10 M-21.50,-0.10L-21.30,-0.20 M-21.30,-0.20L-21.00,-0.30 M-21.00,-0.30L-20.30,-0.30 M-20.30,-0.30L-19.80,-0.10 M-19.80,-0.10L-19.70,0.00 M-19.70,0.00L-19.50,0.40 M-19.50,0.40L-19.50,1.40 M-19.50,1.40L-18.00,1.40 M-18.00,1.40L-16.50,1.40 M-16.50,1.40L-16.50,0.30 M-16.50,0.30L-16.30,0.00 M-16.30,0.00L-16.00,-0.20 M-16.00,-0.20L-15.00,-0.30 M-15.00,-0.30L-14.70,-0.30 M-14.70,-0.30L-14.50,-0.20 M-14.50,-0.20L-14.20,0.10 M-14.20,0.10L-14.20,0.30 M-14.20,0.30L-14.20,1.40 M-14.20,1.40L-12.60,1.40 M-12.60,1.40L-11.00,1.40 M-11.00,1.40L-11.00,1.80 M-11.00,1.80L-12.60,1.80 M-12.60,1.80L-14.20,1.80 M-14.20,1.80L-14.20,0.30 M-14.20,0.30L-14.20,0.10 M-14.20,0.10L-14.50,-0.20 M-14.50,-0.20L-14.70,-0.30 M-14.70,-0.30L-15.00,-0.30 M-15.00,-0.30L-16.00,-0.20 M-16.00,-0.20L-16.30,0.00 M-16.30,0.00L-16.50,0.30 M-16.50,0.30L-16.50,1.80 M-16.50,1.80L-18.00,1.80 M-18.00,1.80L-19.50,1.80 M-19.50,1.80L-19.50,0.40 M-19.50,0.40L-19.70,0.00 M-19.70,0.00L-19.80,-0.10 M-19.80,-0.10L-20.30,-0.30 M-20.30,-0.30L-21.00,-0.30 M-21.00,-0.30L-21.30,-0.20 M-21.30,-0.20L-21.50,-0.10 M-21.50,-0.10L-21.70,0.10 M-21.70,0.10L-21.80,0.30 M-21.80,0.30L-21.80,1.80 M-21.80,1.80L-23.30,1.80 M-23.30,1.80L-24.80,1.80 M-24.80,1.80L-24.80,2.20 M-24.80,2.20L-23.30,2.20 M-23.30,2.20L-21.80,2.20 M-21.80,2.20L-21.80,0.30 M-21.80,0.30L-21.70,0.10 M-21.70,0.10L-21.50,-0.10 M-21.50,-0.10L-21.30,-0.20 M-21.30,-0.20L-21.00,-0.30 M-21.00,-0.30L-20.30,-0.30 M-20.30,-0.30L-19.80,-0.10 M-19.80,-0.10L-19.70,0.00 M-19.70,0.00L-19.50,0.40 M-19.50,0.40L-19.50,2.20 M-19.50,2.20L-18.00,2.20 M-18.00,2.20L-16.50,2.20 M-16.50,2.20L-16.50,0.30 M-16.50,0.30L-16.30,0.00 M-16.30,0.00L-16.00,-0.20 M-16.00,-0.20L-15.00,-0.30 M-15.00,-0.30L-14.70,-0.30 M-14.70,-0.30L-14.50,-0.20 M-14.50,-0.20L-14.20,0.10 M-14.20,0.10L-14.20,0.30 M-14.20,0.30L-14.20,2.20 M-14.20,2.20L-12.60,2.20 M-12.60,2.20L-11.00,2.20 M-11.00,2.20L-11.00,2.60 M-11.00,2.60L-12.60,2.60 M-12.60,2.60L-14.20,2.60 M-14.20,2.60L-14.20,0.30 M-14.20,0.30L-14.20,0.10 M-14.20,0.10L-14.50,-0.20 M-14.50,-0.20L-14.70,-0.30 M-14.70,-0.30L-15.00,-0.30 M-15.00,-0.30L-16.00,-0.20 M-16.00,-0.20L-16.30,0.00 M-16.30,0.00L-16.50,0.30 M-16.50,0.30L-16.50,2.60 M-16.50,2.60L-18.00,2.60 M-18.00,2.60L-19.50,2.60 M-19.50,2.60L-19.50,0.40 M-19.50,0.40L-19.70,0.00 M-19.70,0.00L-19.80,-0.10 M-19.80,-0.10L-20.30,-0.30 M-20.30,-0.30L-21.00,-0.30 M-21.00,-0.30L-21.30,-0.20 M-21.30,-0.20L-21.50,-0.10 M-21.50,-0.10L-21.70,0.10 M-21.70,0.10L-21.80,0.30 M-21.80,0.30L-21.80,2.60 M-21.80,2.60L-23.30,2.60 M-23.30,2.60L-24.80,2.60 M-24.80,2.60L-24.80,3.00 M-24.80,3.00L-23.30,3.00 M-23.30,3.00L-21.80,3.00 M-21.80,3.00L-21.80,1.60 M-21.80,1.60L-21.80,0.30 M-21.80,0.30L-21.70,0.10 M-21.70,0.10L-21.50,-0.10 M-21.50,-0.10L-21.30,-0.20 M-21.30,-0.20L-21.00,-0.30 M-21.00,-0.30L-20.30,-0.30 M-20.30,-0.30L-19.80,-0.10 M-19.80,-0.10L-19.70,0.00 M-19.70,0.00L-19.50,0.40 M-19.50,0.40L-19.50,1.70 M-19.50,1.70L-19.50,3.00 M-19.50,3.00L-18.00,3.00 M-18.00,3.00L-16.50,3.00 M-16.50,3.00L-16.50,1.60 M-16.50,1.60L-16.50,0.30 M-16.50,0.30L-16.30,0.00 M-16.30,0.00L-16.00,-0.20 M-16.00,-0.20L-15.00,-0.30 M-15.00,-0.30L-14.70,-0.30 M-14.70,-0.30L-14.50,-0.20 M-14.50,-0.20L-14.20,0.10 M-14.20,0.10L-14.20,0.30 M-14.20,0.30L-14.20,1.60 M-14.20,1.60L-14.20,3.00 M-14.20,3.00L-12.60,3.00 M-12.60,3.00L-11.00,3.00 M-11.00,3.00L-11.00,3.40 M-11.00,3.40L-12.60,3.40 M-12.60,3.40L-14.20,3.40 M-14.20,3.40L-14.20,1.80 M-14.20,1.80L-14.20,0.30 M-14.20,0.30L-14.20,0.10 M-14.20,0.10L-14.50,-0.20 M-14.50,-0.20L-14.70,-0.30 M-14.70,-0.30L-15.00,-0.30 M-15.00,-0.30L-16.00,-0.20 M-16.00,-0.20L-16.30,0.00 M-16.30,0.00L-16.50,0.30 M-16.50,0.30L-16.50,1.80 M-16.50,1.80L-16.50,3.40 M-16.50,3.40L-18.00,3.40 M-18.00,3.40L-19.50,3.40 M-19.50,3.40L-19.50,1.90 M-19.50,1.90L-19.50,0.40 M-19.50,0.40L-19.70,0.00 M-19.70,0.00L-19.80,-0.10 M-19.80,-0.10L-20.30,-0.30 M-20.30,-0.30L-21.00,-0.30 M-21.00,-0.30L-21.30,-0.20 M-21.30,-0.20L-21.50,-0.10 M-21.50,-0.10L-21.70,0.10 M-21.70,0.10L-21.80,0.30 M-21.80,0.30L-21.80,1.80 M-21.80,1.80L-21.80,3.40 M-21.80,3.40L-23.30,3.40 M-23.30,3.40L-24.80,3.40 M-24.80,3.40L-24.80,3.80 M-24.80,3.80L-23.30,3.80 M-23.30,3.80L-21.80,3.80 M-21.80,3.80L-21.80,2.00 M-21.80,2.00L-21.80,0.30 M-21.80,0.30L-21.70,0.10 M-21.70,0.10L-21.50,-0.10 M-21.50,-0.10L-21.30,-0.20 M-21.30,-0.20L-21.00,-0.30 M-21.00,-0.30L-20.30,-0.30 M-20.30,-0.30L-19.80,-0.10 M-19.80,-0.10L-19.70,0.00 M-19.70,0.00L-19.50,0.40 M-19.50,0.40L-19.50,2.10 M-19.50,2.10L-19.50,3.80 M-19.50,3.80L-18.00,3.80 M-18.00,3.80L-16.50,3.80 M-16.50,3.80L-16.50,2.00 M-16.50,2.00L-16.50,0.30 M-16.50,0.30L-16.30,0.00 M-16.30,0.00L-16.00,-0.20 M-16.00,-0.20L-15.00,-0.30 M-15.00,-0.30L-14.70,-0.30 M-14.70,-0.30L-14.50,-0.20 M-14.50,-0.20L-14.20,0.10 M-14.20,0.10L-14.20,0.30 M-14.20,0.30L-14.20,2.00 M-14.20,2.00L-14.20,3.80 M-14.20,3.80L-12.60,3.80 M-12.60,3.80L-11.00,3.80 M-11.00,3.80L-11.00,4.20 M-11.00,4.20L-12.60,4.20 M-12.60,4.20L-14.20,4.20 M-14.20,4.20L-14.20,2.20 M-14.20,2.20L-14.20,0.30 M-14.20,0.30L-14.20,0.10 M-14.20,0.10L-14.50,-0.20 M-14.50,-0.20L-14.70,-0.30 M-14.70,-0.30L-15.00,-0.30 M-15.00,-0.30L-16.00,-0.20 M-16.00,-0.20L-16.30,0.00 M-16.30,0.00L-16.50,0.30 M-16.50,0.30L-16.50,2.20 M-16.50,2.20L-16.50,4.20 M-16.50,4.20L-18.00,4.20 M-18.00,4.20L-19.50,4.20 M-19.50,4.20L-19.50,2.30 M-19.50,2.30L-19.50,0.40 M-19.50,0.40L-19.70,0.00 M-19.70,0.00L-19.80,-0.10 M-19.80,-0.10L-20.30,-0.30 M-20.30,-0.30L-21.00,-0.30 M-21.00,-0.30L-21.30,-0.20 M-21.30,-0.20L-21.50,-0.10 M-21.50,-0.10L-21.70,0.10 M-21.70,0.10L-21.80,0.30 M-21.80,0.30L-21.80,2.20 M-21.80,2.20L-21.80,4.20 M-21.80,4.20L-23.30,4.20 M-23.30,4.20L-24.80,4.20 M-24.80,4.20L-24.80,4.60 M-24.80,4.60L-23.30,4.60 M-23.30,4.60L-21.80,4.60 M-21.80,4.60L-21.80,2.40 M-21.80,2.40L-21.80,0.30 M-21.80,0.30L-21.70,0.10 M-21.70,0.10L-21.50,-0.10 M-21.50,-0.10L-21.30,-0.20 M-21.30,-0.20L-21.00,-0.30 M-21.00,-0.30L-20.30,-0.30 M-20.30,-0.30L-19.80,-0.10 M-19.80,-0.10L-19.70,0.00 M-19.70,0.00L-19.50,0.40 M-19.50,0.40L-19.50,2.50 M-19.50,2.50L-19.50,4.60 M-19.50,4.60L-18.00,4.60 M-18.00,4.60L-16.50,4.60 M-16.50,4.60L-16.50,2.40 M-16.50,2.40L-16.50,0.30 M-16.50,0.30L-16.30,0.00 M-16.30,0.00L-16.00,-0.20 M-16.00,-0.20L-15.00,-0.30 M-15.00,-0.30L-14.70,-0.30 M-14.70,-0.30L-14.50,-0.20 M-14.50,-0.20L-14.20,0.10 M-14.20,0.10L-14.20,0.30 M-14.20,0.30L-14.20,2.40 M-14.20,2.40L-14.20,4.60 M-14.20,4.60L-12.60,4.60 M-12.60,4.60L-11.00,4.60 M-11.00,4.60L-11.00,5.00 M-11.00,5.00L-12.60,5.00 M-12.60,5.00L-14.20,5.00 M-14.20,5.00L-14.20,2.60 M-14.20,2.60L-14.20,0.30 M-14.20,0.30L-14.20,0.10 M-14.20,0.10L-14.50,-0.20 M-14.50,-0.20L-14.70,-0.30 M-14.70,-0.30L-15.00,-0.30 M-15.00,-0.30L-16.00,-0.20 M-16.00,-0.20L-16.30,0.00 M-16.30,0.00L-16.50,0.30 M-16.50,0.30L-16.50,2.60 M-16.50,2.60L-16.50,5.00 M-16.50,5.00L-18.00,5.00 M-18.00,5.00L-19.50,5.00 M-19.50,5.00L-19.50,2.70 M-19.50,2.70L-19.50,0.40 M-19.50,0.40L-19.70,0.00 M-19.70,0.00L-19.80,-0.10 M-19.80,-0.10L-20.30,-0.30 M-20.30,-0.30L-21.00,-0.30 M-21.00,-0.30L-21.30,-0.20 M-21.30,-0.20L-21.50,-0.10 M-21.50,-0.10L-21.70,0.10 M-21.70,0.10L-21.80,0.30 M-21.80,0.30L-21.80,2.60 M-21.80,2.60L-21.80,5.00 M-21.80,5.00L-23.30,5.00 M-23.30,5.00L-24.80,5.00 M-24.80,5.00L-24.80,5.40 M-24.80,5.40L-23.30,5.40 M-23.30,5.40L-21.80,5.40 M-21.80,5.40L-21.80,3.70 M-21.80,3.70L-21.80,2.00 M-21.80,2.00L-21.80,0.30 M-21.80,0.30L-21.70,0.10 M-21.70,0.10L-21.50,-0.10 M-21.50,-0.10L-21.30,-0.20 M-21.30,-0.20L-21.00,-0.30 M-21.00,-0.30L-20.30,-0.30 M-20.30,-0.30L-19.80,-0.10 M-19.80,-0.10L-19.70,0.00 M-19.70,0.00L-19.50,0.40 M-19.50,0.40L-19.50,2.00 M-19.50,2.00L-19.50,3.70 M-19.50,3.70L-19.50,5.40 M-19.50,5.40L-18.00,5.40 M-18.00,5.40L-16.50,5.40 M-16.50,5.40L-16.50,3.70 M-16.50,3.70L-16.50,2.00 M-16.50,2.00L-16.50,0.30 M-16.50,0.30L-16.30,0.00 M-16.30,0.00L-16.00,-0.20 M-16.00,-0.20L-15.00,-0.30 M-15.00,-0.30L-14.70,-0.30 M-14.70,-0.30L-14.50,-0.20 M-14.50,-0.20L-14.20,0.10 M-14.20,0.10L-14.20,0.30 M-14.20,0.30L-14.20,2.00 M-14.20,2.00L-14.20,3.70 M-14.20,3.70L-14.20,5.40 M-14.20,5.40L-12.60,5.40 M-12.60,5.40L-11.00,5.40 M-11.00,5.40L-11.00,5.80 M-11.00,5.80L-12.60,5.80 M-12.60,5.80L-14.20,5.80 M-14.20,5.80L-14.20,4.00 M-14.20,4.00L-14.20,2.10 M-14.20,2.10L-14.20,0.30 M-14.20,0.30L-14.20,0.10 M-14.20,0.10L-14.50,-0.20 M-14.50,-0.20L-14.70,-0.30 M-14.70,-0.30L-15.00,-0.30 M-15.00,-0.30L-16.00,-0.20 M-16.00,-0.20L-16.30,0.00 M-16.30,0.00L-16.50,0.30 M-16.50,0.30L-16.50,2.10 M-16.50,2.10L-16.50,3.90 M-16.50,3.90L-16.50,5.80 M-16.50,5.80L-18.00,5.80 M-18.00,5.80L-19.50,5.80 M-19.50,5.80L-19.50,4.00 M-19.50,4.00L-19.50,2.20 M-19.50,2.20L-19.50,0.40 M-19.50,0.40L-19.70,0.00 M-19.70,0.00L-19.80,-0.10 M-19.80,-0.10L-20.30,-0.30 M-20.30,-0.30L-21.00,-0.30 M-21.00,-0.30L-21.30,-0.20 M-21.30,-0.20L-21.50,-0.10 M-21.50,-0.10L-21.70,0.10 M-21.70,0.10L-21.80,0.30 M-21.80,0.30L-21.80,2.10 M-21.80,2.10L-21.80,4.00 M-21.80,4.00L-21.80,5.80 M-21.80,5.80L-23.30,5.80 M-23.30,5.80L-24.80,5.80 M-24.80,5.80L-24.80,6.20 M-24.80,6.20L-23.30,6.20 M-23.30,6.20L-21.80,6.20 M-21.80,6.20L-21.80,4.20 M-21.80,4.20L-21.80,2.30 M-21.80,2.30L-21.80,0.30 M-21.80,0.30L-21.70,0.10 M-21.70,0.10L-21.50,-0.10 M-21.50,-0.10L-21.30,-0.20 M-21.30,-0.20L-21.00,-0.30 M-21.00,-0.30L-20.30,-0.30 M-20.30,-0.30L-19.80,-0.10 M-19.80,-0.10L-19.70,0.00 M-19.70,0.00L-19.50,0.40 M-19.50,0.40L-19.50,2.30 M-19.50,2.30L-19.50,4.20 M-19.50,4.20L-19.50,6.20 M-19.50,6.20L-18.00,6.20 M-18.00,6.20L-16.50,6.20 M-16.50,6.20L-16.50,4.20 M-16.50,4.20L-16.50,2.20 M-16.50,2.20L-16.50,0.30 M-16.50,0.30L-16.30,0.00 M-16.30,0.00L-16.00,-0.20 M-16.00,-0.20L-15.00,-0.30 M-15.00,-0.30L-14.70,-0.30 M-14.70,-0.30L-14.50,-0.20 M-14.50,-0.20L-14.20,0.10 M-14.20,0.10L-14.20,0.30 M-14.20,0.30L-14.20,2.30 M-14.20,2.30L-14.20,4.20 M-14.20,4.20L-14.20,6.20 M-14.20,6.20L-12.60,6.20 M-12.60,6.20L-11.00,6.20 M-11.00,6.20L-11.20,5.90 M-11.20,5.90L-11.00,6.20 M-11.00,6.20L-11.20,5.90 M-8.80,-1.90L-8.80,-1.90 M-8.80,-1.90L-9.10,-1.90 M-9.10,-1.90L-8.80,-1.90 M-8.80,-1.90L-9.10,-1.90 M-9.10,-1.90L-6.80,-1.90 M-6.80,-1.90L-4.50,-1.90 M-4.50,-1.90L-2.30,-1.90 M-2.30,-1.90L-1.50,-0.70 M-1.50,-0.70L-3.40,-0.70 M-3.40,-0.70L-5.30,-0.70 M-5.30,-0.70L-7.20,-0.70 M-7.20,-0.70L-9.10,-0.70 M-9.10,-0.70L-7.10,-0.50 M-7.10,-0.50L-5.00,-0.30 M-5.00,-0.30L-4.50,-0.20 M-4.50,-0.20L-4.30,0.00 M-4.30,0.00L-4.00,0.50 M-4.00,0.50L-2.70,0.50 M-2.70,0.50L-1.40,0.50 M-1.40,0.50L-1.30,1.70 M-1.30,1.70L-3.40,1.70 M-3.40,1.70L-5.40,1.70 M-5.40,1.70L-7.50,1.70 M-7.50,1.70L-9.50,1.70 M-9.50,1.70L-10.00,2.90 M-10.00,2.90L-8.70,2.90 M-8.70,2.90L-7.40,2.90 M-7.40,2.90L-6.70,2.70 M-6.70,2.70L-6.00,2.70 M-6.00,2.70L-4.20,2.70 M-4.20,2.70L-4.00,2.90 M-4.00,2.90L-2.70,2.90 M-2.70,2.90L-1.30,2.90 M-1.30,2.90L-1.30,4.10 M-1.30,4.10L-2.80,4.10 M-2.80,4.10L-4.20,4.10 M-4.20,4.10L-4.80,4.20 M-4.80,4.20L-6.80,4.20 M-6.80,4.20L-7.30,4.10 M-7.30,4.10L-8.70,4.10 M-8.70,4.10L-10.00,4.10 M-10.00,4.10L-9.60,5.30 M-9.60,5.30L-7.50,5.30 M-7.50,5.30L-5.50,5.30 M-5.50,5.30L-3.40,5.30 M-3.40,5.30L-1.30,5.30 M-1.30,5.30L-2.30,3.50 M-2.30,3.50L-3.30,1.70 M-3.30,1.70L-4.30,0.00 M-4.30,0.00L-4.50,-0.20 M-4.50,-0.20L-6.10,-0.80 M-6.10,-0.80L-7.70,-1.40 M-7.70,-1.40L-9.30,-1.90 M-9.30,-1.90L-9.30,-0.30 M-9.30,-0.30L-7.30,-0.30 M-7.30,-0.30L-5.20,-0.30 M-5.20,-0.30L-5.00,-0.30 M-5.00,-0.30L-5.00,-0.30 M-5.00,-0.30L-4.50,-0.20 M-4.50,-0.20L-4.30,0.00 M-4.30,0.00L-4.30,0.20 M-4.30,0.20L-4.20,0.70 M-4.20,0.70L-6.00,0.70 M-6.00,0.70L-7.80,0.70 M-7.80,0.70L-7.80,0.80 M-7.80,0.80L-8.30,0.80 M-8.30,0.80L-8.70,0.90 M-8.70,0.90L-9.60,1.40 M-9.60,1.40L-9.80,1.60 M-9.80,1.60L-9.80,1.70 M-9.80,1.70L-9.90,1.80 M-9.90,1.80L-9.90,1.90 M-9.90,1.90L-10.00,2.00 M-10.00,2.00L-10.10,2.20 M-10.10,2.20L-10.20,2.70 M-10.20,2.70L-10.30,2.70 M-10.30,2.70L-10.30,3.10 M-10.30,3.10L-10.30,3.10 M-10.30,3.10L-10.30,4.40 M-10.30,4.40L-10.20,4.40 M-10.20,4.40L-10.20,4.60 M-10.20,4.60L-10.20,4.60 M-10.20,4.60L-10.20,4.80 M-10.20,4.80L-10.00,5.20 M-10.00,5.20L-9.70,5.50 M-9.70,5.50L-9.10,6.00 M-9.10,6.00L-8.50,6.20 M-8.50,6.20L-8.50,6.20 M-8.50,6.20L-8.30,6.20 M-8.30,6.20L-8.30,6.30 M-8.30,6.30L-7.90,6.30 M-7.90,6.30L-7.90,6.40 M-7.90,6.40L-6.60,6.30 M-6.60,6.30L-5.30,6.30 M-5.30,6.30L-5.30,6.20 M-5.30,6.20L-4.70,6.10 M-4.70,6.10L-4.70,6.00 M-4.70,6.00L-4.40,5.90 M-4.40,5.90L-4.10,5.60 M-4.10,5.60L-4.10,6.30 M-4.10,6.30L-4.00,6.40 M-4.00,6.40L-3.90,6.30 M-3.90,6.30L-3.80,6.40 M-3.80,6.40L-3.70,6.40 M-3.70,6.40L-2.70,6.40 M-2.70,6.40L-2.70,6.30 M-2.70,6.30L-1.10,6.30 M-1.10,6.30L-1.20,5.60 M-1.20,5.60L-1.10,5.60 M-1.10,5.60L-1.10,3.20 M-1.10,3.20L-1.10,0.90 M-1.10,0.90L-1.20,0.90 M-1.20,0.90L-1.20,-0.40 M-1.20,-0.40L-1.20,-0.40 M-1.20,-0.40L-1.20,-0.80 M-1.20,-0.80L-1.30,-0.80 M-1.30,-0.80L-1.40,-1.30 M-1.40,-1.30L-1.50,-1.40 M-1.50,-1.40L-1.60,-1.50 M-1.60,-1.50L-1.60,-1.60 M-1.60,-1.60L-1.80,-1.80 M-1.80,-1.80L-1.80,-1.90 M-1.80,-1.90L-2.70,-2.50 M-2.70,-2.50L-3.30,-2.60 M-3.30,-2.60L-3.30,-2.70 M-3.30,-2.70L-3.80,-2.70 M-3.80,-2.70L-3.80,-2.80 M-3.80,-2.80L-5.60,-2.80 M-5.60,-2.80L-7.50,-2.80 M-7.50,-2.80L-9.30,-2.80 M-9.30,-2.80L-9.30,-1.90 M-9.30,-1.90L-7.70,-1.40 M-7.70,-1.40L-6.10,-0.80 M-6.10,-0.80L-4.50,-0.20 M-4.50,-0.20L-4.30,0.00 M-4.30,0.00L-4.30,0.20 M-4.30,0.20L-4.20,0.70 M-4.20,0.70L-5.10,1.70 M-5.10,1.70L-6.00,2.70 M-6.00,2.70L-4.20,2.70 M-4.20,2.70L-4.20,3.60 M-4.20,3.60L-4.40,3.80 M-4.40,3.80L-4.40,3.90 M-4.40,3.90L-4.50,3.90 M-4.50,3.90L-4.60,4.10 M-4.60,4.10L-4.80,4.20 M-4.80,4.20L-6.80,4.20 M-6.80,4.20L-6.80,4.10 M-6.80,4.10L-7.00,4.10 M-7.00,4.10L-7.20,3.90 M-7.20,3.90L-7.20,3.60 M-7.20,3.60L-7.30,3.60 M-7.30,3.60L-7.20,3.00 M-7.20,3.00L-7.00,2.80 M-7.00,2.80L-6.70,2.70 M-6.70,2.70L-6.00,2.70 M-6.00,2.70L-5.10,1.70 M-5.10,1.70L-4.20,0.70 M-4.20,0.70L-4.30,0.20 M-4.30,0.20L-4.30,0.00 M-4.30,0.00L-4.50,-0.20 M-4.50,-0.20L-6.10,-1.00 M-6.10,-1.00L-7.70,-1.80 M-7.70,-1.80L-9.30,-2.60 M-9.30,-2.60L-7.20,-2.60 M-7.20,-2.60L-5.10,-2.60 M-5.10,-2.60L-3.00,-2.60 M-3.00,-2.60L-2.20,-2.20 M-2.20,-2.20L-4.60,-2.20 M-4.60,-2.20L-7.00,-2.20 M-7.00,-2.20L-9.30,-2.20 M-9.30,-2.20L-9.30,-1.80 M-9.30,-1.80L-7.50,-1.80 M-7.50,-1.80L-5.60,-1.80 M-5.60,-1.80L-3.70,-1.80 M-3.70,-1.80L-1.80,-1.80 M-1.80,-1.80L-1.60,-1.50 M-1.60,-1.50L-1.40,-1.40 M-1.40,-1.40L-3.40,-1.40 M-3.40,-1.40L-5.40,-1.40 M-5.40,-1.40L-7.40,-1.40 M-7.40,-1.40L-9.30,-1.40 M-9.30,-1.40L-9.30,-1.00 M-9.30,-1.00L-7.30,-1.00 M-7.30,-1.00L-5.30,-1.00 M-5.30,-1.00L-3.30,-1.00 M-3.30,-1.00L-1.30,-1.00 M-1.30,-1.00L-1.20,-0.60 M-1.20,-0.60L-3.30,-0.60 M-3.30,-0.60L-5.30,-0.60 M-5.30,-0.60L-7.30,-0.60 M-7.30,-0.60L-9.30,-0.60 M-9.30,-0.60L-7.20,-0.40 M-7.20,-0.40L-5.00,-0.30 M-5.00,-0.30L-4.50,-0.20 M-4.50,-0.20L-4.50,-0.20 M-4.50,-0.20L-2.80,-0.20 M-2.80,-0.20L-1.20,-0.20 M-1.20,-0.20L-1.20,0.20 M-1.20,0.20L-2.70,0.20 M-2.70,0.20L-4.30,0.20 M-4.30,0.20L-4.20,0.60 M-4.20,0.60L-2.70,0.60 M-2.70,0.60L-1.20,0.60 M-1.20,0.60L-1.20,0.90 M-1.20,0.90L-1.10,1.00 M-1.10,1.00L-3.10,1.00 M-3.10,1.00L-5.00,1.00 M-5.00,1.00L-7.00,1.00 M-7.00,1.00L-8.90,1.00 M-8.90,1.00L-9.60,1.40 M-9.60,1.40L-7.50,1.40 M-7.50,1.40L-5.40,1.40 M-5.40,1.40L-3.20,1.40 M-3.20,1.40L-1.10,1.40 M-1.10,1.40L-1.10,1.80 M-1.10,1.80L-3.30,1.80 M-3.30,1.80L-5.50,1.80 M-5.50,1.80L-7.70,1.80 M-7.70,1.80L-9.90,1.80 M-9.90,1.80L-9.90,1.90 M-9.90,1.90L-10.10,2.20 M-10.10,2.20L-7.90,2.20 M-7.90,2.20L-5.60,2.20 M-5.60,2.20L-3.40,2.20 M-3.40,2.20L-1.10,2.20 M-1.10,2.20L-1.10,2.60 M-1.10,2.60L-3.40,2.60 M-3.40,2.60L-5.70,2.60 M-5.70,2.60L-7.90,2.60 M-7.90,2.60L-10.20,2.60 M-10.20,2.60L-10.30,3.00 M-10.30,3.00L-8.70,3.00 M-8.70,3.00L-7.20,3.00 M-7.20,3.00L-7.20,3.00 M-7.20,3.00L-7.00,2.80 M-7.00,2.80L-6.70,2.70 M-6.70,2.70L-6.00,2.70 M-6.00,2.70L-4.20,2.70 M-4.20,2.70L-4.20,3.00 M-4.20,3.00L-2.70,3.00 M-2.70,3.00L-1.10,3.00 M-1.10,3.00L-1.10,3.40 M-1.10,3.40L-2.70,3.40 M-2.70,3.40L-4.20,3.40 M-4.20,3.40L-4.20,3.60 M-4.20,3.60L-4.40,3.90 M-4.40,3.90L-4.60,4.10 M-4.60,4.10L-4.80,4.20 M-4.80,4.20L-6.80,4.20 M-6.80,4.20L-7.00,4.10 M-7.00,4.10L-7.20,3.90 M-7.20,3.90L-7.30,3.60 M-7.30,3.60L-7.30,3.40 M-7.30,3.40L-8.80,3.40 M-8.80,3.40L-10.30,3.40 M-10.30,3.40L-10.30,3.80 M-10.30,3.80L-8.70,3.80 M-8.70,3.80L-7.20,3.80 M-7.20,3.80L-7.20,3.90 M-7.20,3.90L-7.00,4.10 M-7.00,4.10L-6.80,4.20 M-6.80,4.20L-4.80,4.20 M-4.80,4.20L-4.60,4.10 M-4.60,4.10L-4.40,3.90 M-4.40,3.90L-4.40,3.80 M-4.40,3.80L-2.80,3.80 M-2.80,3.80L-1.10,3.80 M-1.10,3.80L-1.10,4.20 M-1.10,4.20L-3.40,4.20 M-3.40,4.20L-5.70,4.20 M-5.70,4.20L-8.00,4.20 M-8.00,4.20L-10.30,4.20 M-10.30,4.20L-10.20,4.40 M-10.20,4.40L-10.20,4.60 M-10.20,4.60L-7.90,4.60 M-7.90,4.60L-5.60,4.60 M-5.60,4.60L-3.40,4.60 M-3.40,4.60L-1.10,4.60 M-1.10,4.60L-1.10,5.00 M-1.10,5.00L-3.30,5.00 M-3.30,5.00L-5.60,5.00 M-5.60,5.00L-7.80,5.00 M-7.80,5.00L-10.10,5.00 M-10.10,5.00L-9.80,5.40 M-9.80,5.40L-7.60,5.40 M-7.60,5.40L-5.40,5.40 M-5.40,5.40L-3.30,5.40 M-3.30,5.40L-1.10,5.40 M-1.10,5.40L-1.20,5.60 M-1.20,5.60L-1.10,5.80 M-1.10,5.80L-2.60,5.80 M-2.60,5.80L-4.10,5.80 M-4.10,5.80L-4.10,5.60 M-4.10,5.60L-4.30,5.80 M-4.30,5.80L-6.80,5.80 M-6.80,5.80L-9.30,5.80 M-9.30,5.80L-8.50,6.20 M-8.50,6.20L-8.50,6.20 M-8.50,6.20L-6.90,6.20 M-6.90,6.20L-5.30,6.20 M-5.30,6.20L-4.10,5.60 M-4.10,5.60L-4.10,6.20 M-4.10,6.20L-2.60,6.20 M-2.60,6.20L-1.10,6.20 M-1.10,6.20L-1.30,6.00 M-1.30,6.00L-1.10,6.20 M-1.10,6.20L-1.30,6.00 M0.30,-1.90L0.30,-1.90 M0.30,-1.90L0.00,-1.90 M0.00,-1.90L0.30,-1.90 M0.30,-1.90L0.00,-1.90 M0.00,-1.90L1.30,-1.90 M1.30,-1.90L2.50,-1.90 M2.50,-1.90L3.20,-1.90 M3.20,-1.90L5.30,-1.90 M5.30,-1.90L5.30,-0.70 M5.30,-0.70L3.50,-0.70 M3.50,-0.70L1.80,-0.70 M1.80,-0.70L0.00,-0.70 M0.00,-0.70L0.00,0.50 M0.00,0.50L1.40,0.50 M1.40,0.50L2.70,0.50 M2.70,0.50L2.60,1.70 M2.60,1.70L1.30,1.70 M1.30,1.70L0.00,1.70 M0.00,1.70L0.00,2.90 M0.00,2.90L1.30,2.90 M1.30,2.90L2.60,2.90 M2.60,2.90L2.60,4.10 M2.60,4.10L1.30,4.10 M1.30,4.10L0.00,4.10 M0.00,4.10L0.00,5.30 M0.00,5.30L1.30,5.30 M1.30,5.30L2.60,5.30 M2.60,5.30L1.90,3.50 M1.90,3.50L1.20,1.70 M1.20,1.70L0.50,-0.20 M0.50,-0.20L-0.20,-2.00 M-0.20,-2.00L-0.20,0.10 M-0.20,0.10L-0.20,2.20 M-0.20,2.20L-0.20,4.30 M-0.20,4.30L-0.20,6.40 M-0.20,6.40L1.30,6.40 M1.30,6.40L2.80,6.40 M2.80,6.40L2.80,4.50 M2.80,4.50L2.80,2.70 M2.80,2.70L2.80,0.80 M2.80,0.80L2.90,0.80 M2.90,0.80L2.90,0.60 M2.90,0.60L3.10,0.30 M3.10,0.30L3.30,0.00 M3.30,0.00L3.60,-0.10 M3.60,-0.10L4.20,-0.20 M4.20,-0.20L5.50,-0.20 M5.50,-0.20L5.50,-1.50 M5.50,-1.50L5.50,-2.80 M5.50,-2.80L4.30,-2.80 M4.30,-2.80L4.30,-2.70 M4.30,-2.70L3.80,-2.60 M3.80,-2.60L3.30,-2.40 M3.30,-2.40L3.10,-2.10 M3.10,-2.10L3.00,-2.10 M3.00,-2.10L2.90,-1.90 M2.90,-1.90L2.80,-1.90 M2.80,-1.90L2.80,-2.10 M2.80,-2.10L2.80,-2.10 M2.80,-2.10L2.80,-2.70 M2.80,-2.70L2.80,-2.80 M2.80,-2.80L1.30,-2.80 M1.30,-2.80L-0.20,-2.80 M-0.20,-2.80L-0.20,-2.00 M-0.20,-2.00L-0.20,-2.60 M-0.20,-2.60L1.30,-2.60 M1.30,-2.60L2.80,-2.60 M2.80,-2.60L2.80,-1.90 M2.80,-1.90L2.90,-1.90 M2.90,-1.90L3.60,-2.60 M3.60,-2.60L5.50,-2.60 M5.50,-2.60L5.50,-2.20 M5.50,-2.20L3.10,-2.20 M3.10,-2.20L2.90,-1.90 M2.90,-1.90L2.80,-1.90 M2.80,-1.90L2.80,-2.20 M2.80,-2.20L1.30,-2.20 M1.30,-2.20L-0.20,-2.20 M-0.20,-2.20L-0.20,-1.80 M-0.20,-1.80L1.70,-1.80 M1.70,-1.80L3.60,-1.80 M3.60,-1.80L5.50,-1.80 M5.50,-1.80L5.50,-1.40 M5.50,-1.40L3.60,-1.40 M3.60,-1.40L1.70,-1.40 M1.70,-1.40L-0.20,-1.40 M-0.20,-1.40L-0.20,-1.00 M-0.20,-1.00L1.70,-1.00 M1.70,-1.00L3.60,-1.00 M3.60,-1.00L5.50,-1.00 M5.50,-1.00L5.50,-0.60 M5.50,-0.60L3.60,-0.60 M3.60,-0.60L1.70,-0.60 M1.70,-0.60L-0.20,-0.60 M-0.20,-0.60L-0.20,-0.20 M-0.20,-0.20L1.90,-0.20 M1.90,-0.20L4.00,-0.20 M4.00,-0.20L3.60,-0.10 M3.60,-0.10L3.30,0.00 M3.30,0.00L3.10,0.20 M3.10,0.20L1.40,0.20 M1.40,0.20L-0.20,0.20 M-0.20,0.20L-0.20,0.60 M-0.20,0.60L1.30,0.60 M1.30,0.60L2.90,0.60 M2.90,0.60L2.80,0.80 M2.80,0.80L2.80,1.00 M2.80,1.00L1.30,1.00 M1.30,1.00L-0.20,1.00 M-0.20,1.00L-0.20,1.40 M-0.20,1.40L1.30,1.40 M1.30,1.40L2.80,1.40 M2.80,1.40L2.80,1.80 M2.80,1.80L1.30,1.80 M1.30,1.80L-0.20,1.80 M-0.20,1.80L-0.20,2.20 M-0.20,2.20L1.30,2.20 M1.30,2.20L2.80,2.20 M2.80,2.20L2.80,2.60 M2.80,2.60L1.30,2.60 M1.30,2.60L-0.20,2.60 M-0.20,2.60L-0.20,3.00 M-0.20,3.00L1.30,3.00 M1.30,3.00L2.80,3.00 M2.80,3.00L2.80,3.40 M2.80,3.40L1.30,3.40 M1.30,3.40L-0.20,3.40 M-0.20,3.40L-0.20,3.80 M-0.20,3.80L1.30,3.80 M1.30,3.80L2.80,3.80 M2.80,3.80L2.80,4.20 M2.80,4.20L1.30,4.20 M1.30,4.20L-0.20,4.20 M-0.20,4.20L-0.20,4.60 M-0.20,4.60L1.30,4.60 M1.30,4.60L2.80,4.60 M2.80,4.60L2.80,5.00 M2.80,5.00L1.30,5.00 M1.30,5.00L-0.20,5.00 M-0.20,5.00L-0.20,5.40 M-0.20,5.40L1.30,5.40 M1.30,5.40L2.80,5.40 M2.80,5.40L2.80,5.80 M2.80,5.80L1.30,5.80 M1.30,5.80L-0.20,5.80 M-0.20,5.80L-0.20,6.20 M-0.20,6.20L1.30,6.20 M1.30,6.20L2.80,6.20 M2.80,6.20L2.70,6.00 M2.70,6.00L2.80,6.20 M2.80,6.20L2.70,6.00 M6.80,-3.90L6.80,-3.90 M6.80,-3.90L6.50,-3.90 M6.50,-3.90L6.80,-3.90 M6.80,-3.90L6.50,-3.90 M6.50,-3.90L7.80,-3.90 M7.80,-3.90L9.10,-3.90 M9.10,-3.90L9.10,-2.70 M9.10,-2.70L7.80,-2.70 M7.80,-2.70L6.50,-2.70 M6.50,-2.70L6.50,-1.50 M6.50,-1.50L8.30,-1.50 M8.30,-1.50L10.10,-1.50 M10.10,-1.50L11.90,-1.50 M11.90,-1.50L10.50,-0.90 M10.50,-0.90L9.10,-0.30 M9.10,-0.30L7.80,-0.30 M7.80,-0.30L6.50,-0.30 M6.50,-0.30L6.50,0.90 M6.50,0.90L7.80,0.90 M7.80,0.90L9.10,0.90 M9.10,0.90L9.10,2.10 M9.10,2.10L7.80,2.10 M7.80,2.10L6.50,2.10 M6.50,2.10L6.50,3.30 M6.50,3.30L7.80,3.30 M7.80,3.30L9.10,3.30 M9.10,3.30L9.60,3.80 M9.60,3.80L11.90,4.50 M11.90,4.50L10.20,4.50 M10.20,4.50L8.40,4.50 M8.40,4.50L6.70,4.50 M6.70,4.50L7.70,5.70 M7.70,5.70L9.80,5.70 M9.80,5.70L11.90,5.70 M11.90,5.70L10.70,4.60 M10.70,4.60L9.40,3.60 M9.40,3.60L9.30,3.40 M9.30,3.40L8.60,1.50 M8.60,1.50L7.80,-0.40 M7.80,-0.40L7.00,-2.20 M7.00,-2.20L6.30,-4.10 M6.30,-4.10L6.30,-2.10 M6.30,-2.10L6.30,-0.10 M6.30,-0.10L6.30,1.90 M6.30,1.90L6.30,3.90 M6.30,3.90L6.30,3.90 M6.30,3.90L6.30,4.30 M6.30,4.30L6.40,4.30 M6.40,4.30L6.40,4.60 M6.40,4.60L6.50,4.70 M6.50,4.70L6.60,5.00 M6.60,5.00L7.20,5.70 M7.20,5.70L7.30,5.70 M7.30,5.70L7.40,5.90 M7.40,5.90L7.50,5.90 M7.50,5.90L7.60,6.00 M7.60,6.00L7.80,6.10 M7.80,6.10L8.50,6.20 M8.50,6.20L8.50,6.30 M8.50,6.30L10.30,6.30 M10.30,6.30L12.20,6.40 M12.20,6.40L12.20,5.10 M12.20,5.10L12.10,3.80 M12.10,3.80L9.90,3.80 M9.90,3.80L9.60,3.80 M9.60,3.80L9.40,3.60 M9.40,3.60L9.30,3.40 M9.30,3.40L9.30,2.20 M9.30,2.20L9.30,-0.20 M9.30,-0.20L10.80,-0.20 M10.80,-0.20L12.20,-0.20 M12.20,-0.20L12.20,-1.50 M12.20,-1.50L12.20,-2.80 M12.20,-2.80L10.80,-2.80 M10.80,-2.80L9.30,-2.80 M9.30,-2.80L9.30,-4.70 M9.30,-4.70L7.50,-4.80 M7.50,-4.80L7.50,-4.70 M7.50,-4.70L6.50,-4.70 M6.50,-4.70L6.30,-4.80 M6.30,-4.80L6.30,-4.70 M6.30,-4.70L6.30,-4.10 M6.30,-4.10L6.30,-4.60 M6.30,-4.60L7.80,-4.60 M7.80,-4.60L9.30,-4.60 M9.30,-4.60L9.30,-4.20 M9.30,-4.20L7.80,-4.20 M7.80,-4.20L6.30,-4.20 M6.30,-4.20L6.30,-3.80 M6.30,-3.80L7.80,-3.80 M7.80,-3.80L9.30,-3.80 M9.30,-3.80L9.30,-3.40 M9.30,-3.40L7.80,-3.40 M7.80,-3.40L6.30,-3.40 M6.30,-3.40L6.30,-3.00 M6.30,-3.00L7.80,-3.00 M7.80,-3.00L9.30,-3.00 M9.30,-3.00L9.30,-2.80 M9.30,-2.80L10.80,-2.70 M10.80,-2.70L12.20,-2.60 M12.20,-2.60L10.20,-2.60 M10.20,-2.60L8.20,-2.60 M8.20,-2.60L6.30,-2.60 M6.30,-2.60L6.30,-2.20 M6.30,-2.20L8.20,-2.20 M8.20,-2.20L10.20,-2.20 M10.20,-2.20L12.20,-2.20 M12.20,-2.20L12.20,-1.80 M12.20,-1.80L10.20,-1.80 M10.20,-1.80L8.20,-1.80 M8.20,-1.80L6.30,-1.80 M6.30,-1.80L6.30,-1.40 M6.30,-1.40L8.20,-1.40 M8.20,-1.40L10.20,-1.40 M10.20,-1.40L12.20,-1.40 M12.20,-1.40L12.20,-1.00 M12.20,-1.00L10.20,-1.00 M10.20,-1.00L8.20,-1.00 M8.20,-1.00L6.30,-1.00 M6.30,-1.00L6.30,-0.60 M6.30,-0.60L8.20,-0.60 M8.20,-0.60L10.20,-0.60 M10.20,-0.60L12.20,-0.60 M12.20,-0.60L10.80,-0.40 M10.80,-0.40L9.30,-0.20 M9.30,-0.20L9.30,-0.20 M9.30,-0.20L7.80,-0.20 M7.80,-0.20L6.30,-0.20 M6.30,-0.20L6.30,0.20 M6.30,0.20L7.80,0.20 M7.80,0.20L9.30,0.20 M9.30,0.20L9.30,0.60 M9.30,0.60L7.80,0.60 M7.80,0.60L6.30,0.60 M6.30,0.60L6.30,1.00 M6.30,1.00L7.80,1.00 M7.80,1.00L9.30,1.00 M9.30,1.00L9.30,1.40 M9.30,1.40L7.80,1.40 M7.80,1.40L6.30,1.40 M6.30,1.40L6.30,1.80 M6.30,1.80L7.80,1.80 M7.80,1.80L9.30,1.80 M9.30,1.80L9.30,2.20 M9.30,2.20L7.80,2.20 M7.80,2.20L6.30,2.20 M6.30,2.20L6.30,2.60 M6.30,2.60L7.80,2.60 M7.80,2.60L9.30,2.60 M9.30,2.60L9.30,3.00 M9.30,3.00L7.80,3.00 M7.80,3.00L6.30,3.00 M6.30,3.00L6.30,3.40 M6.30,3.40L7.80,3.40 M7.80,3.40L9.40,3.40 M9.40,3.40L9.40,3.60 M9.40,3.60L9.60,3.80 M9.60,3.80L9.90,3.80 M9.90,3.80L12.10,3.80 M12.10,3.80L10.20,3.80 M10.20,3.80L8.20,3.80 M8.20,3.80L6.30,3.80 M6.30,3.80L6.30,3.90 M6.30,3.90L6.30,4.20 M6.30,4.20L8.30,4.20 M8.30,4.20L10.20,4.20 M10.20,4.20L12.10,4.20 M12.10,4.20L12.20,4.60 M12.20,4.60L10.30,4.60 M10.30,4.60L8.40,4.60 M8.40,4.60L6.50,4.60 M6.50,4.60L6.50,4.70 M6.50,4.70L6.60,5.00 M6.60,5.00L8.50,5.00 M8.50,5.00L10.30,5.00 M10.30,5.00L12.20,5.00 M12.20,5.00L12.20,5.40 M12.20,5.40L10.40,5.40 M10.40,5.40L8.70,5.40 M8.70,5.40L7.00,5.40 M7.00,5.40L7.30,5.70 M7.30,5.70L7.40,5.80 M7.40,5.80L9.80,5.80 M9.80,5.80L12.20,5.80 M12.20,5.80L12.20,6.20 M12.20,6.20L10.30,6.20 M10.30,6.20L8.50,6.20 M8.50,6.20L8.40,5.90 M8.40,5.90L8.50,6.20 M8.50,6.20L8.40,5.90 M11.80,-5.50L11.80,-5.50 M11.80,-5.50L11.50,-5.50 M11.50,-5.50L11.80,-5.50 M11.80,-5.50L11.50,-5.50 M11.50,-5.50L13.90,-5.50 M13.90,-5.50L16.30,-5.50 M16.30,-5.50L18.70,-5.50 M18.70,-5.50L21.20,-5.50 M21.20,-5.50L21.20,-4.30 M21.20,-4.30L18.70,-4.30 M18.70,-4.30L16.30,-4.30 M16.30,-4.30L13.90,-4.30 M13.90,-4.30L11.50,-4.30 M11.50,-4.30L13.40,-4.10 M13.40,-4.10L15.40,-3.90 M15.40,-3.90L17.30,-3.70 M17.30,-3.70L17.60,-3.60 M17.60,-3.60L18.10,-3.10 M18.10,-3.10L19.60,-3.10 M19.60,-3.10L21.10,-3.10 M21.10,-3.10L19.10,-3.60 M19.10,-3.60L17.20,-4.00 M17.20,-4.00L15.20,-4.50 M15.20,-4.50L13.20,-5.00 M13.20,-5.00L11.20,-5.40 M11.20,-5.40L11.20,-3.80 M11.20,-3.80L13.30,-3.80 M13.30,-3.80L15.30,-3.70 M15.30,-3.70L17.30,-3.70 M17.30,-3.70L17.60,-3.60 M17.60,-3.60L17.80,-3.40 M17.80,-3.40L18.00,-2.80 M18.00,-2.80L18.10,-2.70 M18.10,-2.70L18.20,-2.60 M18.20,-2.60L18.40,-2.60 M18.40,-2.60L20.90,-2.60 M20.90,-2.60L21.10,-2.70 M21.10,-2.70L21.30,-2.90 M21.30,-2.90L21.40,-3.00 M21.40,-3.00L21.30,-3.30 M21.30,-3.30L21.40,-3.30 M21.40,-3.30L21.40,-4.80 M21.40,-4.80L21.40,-6.40 M21.40,-6.40L19.40,-6.40 M19.40,-6.40L17.30,-6.40 M17.30,-6.40L15.30,-6.40 M15.30,-6.40L13.30,-6.40 M13.30,-6.40L11.20,-6.40 M11.20,-6.40L11.20,-5.40 M11.20,-5.40L11.20,-6.20 M11.20,-6.20L13.30,-6.20 M13.30,-6.20L15.30,-6.20 M15.30,-6.20L17.30,-6.20 M17.30,-6.20L19.40,-6.20 M19.40,-6.20L21.40,-6.20 M21.40,-6.20L21.40,-5.80 M21.40,-5.80L19.40,-5.80 M19.40,-5.80L17.30,-5.80 M17.30,-5.80L15.30,-5.80 M15.30,-5.80L13.30,-5.80 M13.30,-5.80L11.20,-5.80 M11.20,-5.80L11.20,-5.40 M11.20,-5.40L13.30,-5.40 M13.30,-5.40L15.30,-5.40 M15.30,-5.40L17.30,-5.40 M17.30,-5.40L19.40,-5.40 M19.40,-5.40L21.40,-5.40 M21.40,-5.40L21.40,-5.00 M21.40,-5.00L19.40,-5.00 M19.40,-5.00L17.30,-5.00 M17.30,-5.00L15.30,-5.00 M15.30,-5.00L13.30,-5.00 M13.30,-5.00L11.20,-5.00 M11.20,-5.00L11.20,-4.60 M11.20,-4.60L13.30,-4.60 M13.30,-4.60L15.30,-4.60 M15.30,-4.60L17.30,-4.60 M17.30,-4.60L19.40,-4.60 M19.40,-4.60L21.40,-4.60 M21.40,-4.60L21.40,-4.20 M21.40,-4.20L19.40,-4.20 M19.40,-4.20L17.30,-4.20 M17.30,-4.20L15.30,-4.20 M15.30,-4.20L13.30,-4.20 M13.30,-4.20L11.20,-4.20 M11.20,-4.20L11.20,-3.80 M11.20,-3.80L13.30,-3.80 M13.30,-3.80L15.30,-3.80 M15.30,-3.80L17.30,-3.80 M17.30,-3.80L19.40,-3.80 M19.40,-3.80L21.40,-3.80 M21.40,-3.80L21.40,-3.40 M21.40,-3.40L19.60,-3.40 M19.60,-3.40L17.80,-3.40 M17.80,-3.40L17.90,-3.00 M17.90,-3.00L19.60,-3.00 M19.60,-3.00L21.30,-3.00 M21.30,-3.00L20.90,-2.60 M20.90,-2.60L19.60,-2.60 M19.60,-2.60L18.30,-2.60 M18.30,-2.60L18.10,-2.80 M18.10,-2.80L18.30,-2.60 M18.30,-2.60L18.10,-2.80 M15.30,-1.90L15.30,-1.90 M15.30,-1.90L15.00,-1.90 M15.00,-1.90L15.30,-1.90 M15.30,-1.90L15.00,-1.90 M15.00,-1.90L16.30,-1.90 M16.30,-1.90L17.60,-1.90 M17.60,-1.90L17.60,-0.70 M17.60,-0.70L16.30,-0.70 M16.30,-0.70L15.00,-0.70 M15.00,-0.70L15.00,0.50 M15.00,0.50L16.30,0.50 M16.30,0.50L17.60,0.50 M17.60,0.50L17.60,1.70 M17.60,1.70L16.30,1.70 M16.30,1.70L15.00,1.70 M15.00,1.70L15.00,2.90 M15.00,2.90L16.30,2.90 M16.30,2.90L17.60,2.90 M17.60,2.90L17.60,4.10 M17.60,4.10L16.30,4.10 M16.30,4.10L15.00,4.10 M15.00,4.10L15.00,5.30 M15.00,5.30L16.30,5.30 M16.30,5.30L17.60,5.30 M17.60,5.30L16.90,3.30 M16.90,3.30L16.20,1.30 M16.20,1.30L15.40,-0.60 M15.40,-0.60L14.70,-2.60 M14.70,-2.60L14.70,-0.40 M14.70,-0.40L14.70,1.90 M14.70,1.90L14.70,4.10 M14.70,4.10L14.70,6.30 M14.70,6.30L16.30,6.40 M16.30,6.40L17.80,6.40 M17.80,6.40L17.80,4.20 M17.80,4.20L17.80,2.10 M17.80,2.10L17.80,-0.10 M17.80,-0.10L17.80,-2.30 M17.80,-2.30L17.80,-2.30 M17.80,-2.30L17.80,-2.40 M17.80,-2.40L17.70,-2.60 M17.70,-2.60L17.40,-2.80 M17.40,-2.80L16.10,-2.80 M16.10,-2.80L14.70,-2.80 M14.70,-2.80L14.70,-2.60 M14.70,-2.60L14.70,-2.60 M14.70,-2.60L16.20,-2.60 M16.20,-2.60L17.70,-2.60 M17.70,-2.60L17.80,-2.30 M17.80,-2.30L17.80,-2.20 M17.80,-2.20L16.30,-2.20 M16.30,-2.20L14.70,-2.20 M14.70,-2.20L14.70,-1.80 M14.70,-1.80L16.30,-1.80 M16.30,-1.80L17.80,-1.80 M17.80,-1.80L17.80,-1.40 M17.80,-1.40L16.30,-1.40 M16.30,-1.40L14.70,-1.40 M14.70,-1.40L14.70,-1.00 M14.70,-1.00L16.30,-1.00 M16.30,-1.00L17.80,-1.00 M17.80,-1.00L17.80,-0.60 M17.80,-0.60L16.30,-0.60 M16.30,-0.60L14.70,-0.60 M14.70,-0.60L14.70,-0.20 M14.70,-0.20L16.30,-0.20 M16.30,-0.20L17.80,-0.20 M17.80,-0.20L17.80,0.20 M17.80,0.20L16.30,0.20 M16.30,0.20L14.70,0.20 M14.70,0.20L14.70,0.60 M14.70,0.60L16.30,0.60 M16.30,0.60L17.80,0.60 M17.80,0.60L17.80,1.00 M17.80,1.00L16.30,1.00 M16.30,1.00L14.70,1.00 M14.70,1.00L14.70,1.40 M14.70,1.40L16.30,1.40 M16.30,1.40L17.80,1.40 M17.80,1.40L17.80,1.80 M17.80,1.80L16.30,1.80 M16.30,1.80L14.70,1.80 M14.70,1.80L14.70,2.20 M14.70,2.20L16.30,2.20 M16.30,2.20L17.80,2.20 M17.80,2.20L17.80,2.60 M17.80,2.60L16.30,2.60 M16.30,2.60L14.70,2.60 M14.70,2.60L14.70,3.00 M14.70,3.00L16.30,3.00 M16.30,3.00L17.80,3.00 M17.80,3.00L17.80,3.40 M17.80,3.40L16.30,3.40 M16.30,3.40L14.70,3.40 M14.70,3.40L14.70,3.80 M14.70,3.80L16.30,3.80 M16.30,3.80L17.80,3.80 M17.80,3.80L17.80,4.20 M17.80,4.20L16.30,4.20 M16.30,4.20L14.70,4.20 M14.70,4.20L14.70,4.60 M14.70,4.60L16.30,4.60 M16.30,4.60L17.80,4.60 M17.80,4.60L17.80,5.00 M17.80,5.00L16.30,5.00 M16.30,5.00L14.70,5.00 M14.70,5.00L14.70,5.40 M14.70,5.40L16.30,5.40 M16.30,5.40L17.80,5.40 M17.80,5.40L17.80,5.80 M17.80,5.80L16.30,5.80 M16.30,5.80L14.70,5.80 M14.70,5.80L14.70,6.20 M14.70,6.20L16.30,6.20 M16.30,6.20L17.80,6.20 M17.80,6.20L17.70,6.00 M17.70,6.00L17.80,6.20 M17.80,6.20L17.70,6.00 M21.80,-2.00L21.80,-2.00 M21.80,-2.00L21.50,-2.00 M21.50,-2.00L21.80,-2.00 M21.80,-2.00L21.50,-2.00 M21.50,-2.00L23.70,-2.00 M23.70,-2.00L25.90,-2.00 M25.90,-2.00L28.20,-2.00 M28.20,-2.00L29.10,-0.80 M29.10,-0.80L27.00,-0.80 M27.00,-0.80L24.80,-0.80 M24.80,-0.80L22.60,-0.80 M22.60,-0.80L20.50,-0.80 M20.50,-0.80L20.20,0.40 M20.20,0.40L21.50,0.40 M21.50,0.40L22.80,0.40 M22.80,0.40L23.00,0.90 M23.00,0.90L24.80,0.90 M24.80,0.90L26.60,0.90 M26.60,0.90L26.80,0.40 M26.80,0.40L28.10,0.40 M28.10,0.40L29.40,0.40 M29.40,0.40L29.40,1.60 M29.40,1.60L27.10,1.60 M27.10,1.60L24.80,1.60 M24.80,1.60L22.50,1.60 M22.50,1.60L20.20,1.60 M20.20,1.60L20.20,2.80 M20.20,2.80L21.50,2.80 M21.50,2.80L22.80,2.80 M22.80,2.80L23.50,4.00 M23.50,4.00L21.90,4.00 M21.90,4.00L20.40,4.00 M20.40,4.00L21.10,5.20 M21.10,5.20L23.00,5.20 M23.00,5.20L25.00,5.20 M25.00,5.20L26.90,5.20 M26.90,5.20L28.80,5.20 M28.80,5.20L27.20,4.80 M27.20,4.80L25.50,4.40 M25.50,4.40L23.80,3.90 M23.80,3.90L23.40,3.80 M23.40,3.80L23.30,3.70 M23.30,3.70L23.00,3.10 M23.00,3.10L23.00,1.20 M23.00,1.20L23.00,-0.80 M23.00,-0.80L23.00,-2.80 M23.00,-2.80L22.90,-2.70 M22.90,-2.70L22.30,-2.60 M22.30,-2.60L22.30,-2.60 M22.30,-2.60L22.00,-2.50 M22.00,-2.50L21.40,-2.20 M21.40,-2.20L20.70,-1.60 M20.70,-1.60L20.70,-1.50 M20.70,-1.50L20.50,-1.40 M20.50,-1.40L20.50,-1.30 M20.50,-1.30L20.40,-1.20 M20.40,-1.20L20.20,-0.70 M20.20,-0.70L20.00,0.00 M20.00,0.00L20.00,0.00 M20.00,0.00L20.00,0.30 M20.00,0.30L19.90,0.30 M19.90,0.30L19.90,1.70 M19.90,1.70L19.90,3.20 M19.90,3.20L20.00,3.20 M20.00,3.20L20.10,4.10 M20.10,4.10L20.20,4.10 M20.20,4.10L20.20,4.30 M20.20,4.30L20.40,4.80 M20.40,4.80L21.00,5.60 M21.00,5.60L21.20,5.60 M21.20,5.60L21.50,5.90 M21.50,5.90L21.80,6.10 M21.80,6.10L22.40,6.20 M22.40,6.20L22.40,6.20 M22.40,6.20L22.70,6.20 M22.70,6.20L22.70,6.30 M22.70,6.30L23.10,6.30 M23.10,6.30L23.10,6.40 M23.10,6.40L25.10,6.40 M25.10,6.40L27.10,6.40 M27.10,6.40L29.10,6.40 M29.10,6.40L29.10,3.90 M29.10,3.90L27.30,3.90 M27.30,3.90L25.60,3.90 M25.60,3.90L23.80,3.90 M23.80,3.90L23.80,3.90 M23.80,3.90L23.40,3.80 M23.40,3.80L23.30,3.70 M23.30,3.70L23.10,3.10 M23.10,3.10L23.00,3.10 M23.00,3.10L23.00,2.70 M23.00,2.70L25.20,2.70 M25.20,2.70L27.50,2.70 M27.50,2.70L29.70,2.70 M29.70,2.70L29.70,1.40 M29.70,1.40L29.70,0.10 M29.70,0.10L29.60,0.10 M29.60,0.10L29.60,-0.30 M29.60,-0.30L29.50,-0.30 M29.50,-0.30L29.50,-0.80 M29.50,-0.80L29.30,-0.90 M29.30,-0.90L29.30,-1.20 M29.30,-1.20L29.20,-1.30 M29.20,-1.30L29.00,-1.60 M29.00,-1.60L28.50,-2.10 M28.50,-2.10L28.30,-2.10 M28.30,-2.10L28.20,-2.30 M28.20,-2.30L27.80,-2.50 M27.80,-2.50L27.40,-2.60 M27.40,-2.60L27.40,-2.60 M27.40,-2.60L26.90,-2.70 M26.90,-2.70L26.90,-2.80 M26.90,-2.80L26.40,-2.80 M26.40,-2.80L26.40,-2.80 M26.40,-2.80L25.10,-2.80 M25.10,-2.80L23.80,-2.80 M23.80,-2.80L23.70,-2.80 M23.70,-2.80L23.70,-2.80 M23.70,-2.80L23.00,-2.80 M23.00,-2.80L23.80,-1.60 M23.80,-1.60L24.70,-0.40 M24.70,-0.40L25.80,-0.40 M25.80,-0.40L25.80,-0.30 M25.80,-0.30L26.00,-0.30 M26.00,-0.30L26.30,-0.10 M26.30,-0.10L26.50,0.20 M26.50,0.20L26.60,0.90 M26.60,0.90L24.80,0.90 M24.80,0.90L23.00,0.90 M23.00,0.90L23.00,0.40 M23.00,0.40L23.10,0.40 M23.10,0.40L23.20,0.00 M23.20,0.00L23.30,-0.10 M23.30,-0.10L23.90,-0.40 M23.90,-0.40L24.70,-0.40 M24.70,-0.40L23.50,-1.50 M23.50,-1.50L22.30,-2.60 M22.30,-2.60L24.00,-2.60 M24.00,-2.60L25.70,-2.60 M25.70,-2.60L27.40,-2.60 M27.40,-2.60L27.40,-2.60 M27.40,-2.60L28.30,-2.20 M28.30,-2.20L26.00,-2.20 M26.00,-2.20L23.70,-2.20 M23.70,-2.20L21.40,-2.20 M21.40,-2.20L20.90,-1.80 M20.90,-1.80L22.90,-1.80 M22.90,-1.80L24.90,-1.80 M24.90,-1.80L26.80,-1.80 M26.80,-1.80L28.80,-1.80 M28.80,-1.80L29.10,-1.40 M29.10,-1.40L27.00,-1.40 M27.00,-1.40L24.80,-1.40 M24.80,-1.40L22.70,-1.40 M22.70,-1.40L20.60,-1.40 M20.60,-1.40L20.50,-1.30 M20.50,-1.30L20.30,-1.00 M20.30,-1.00L22.60,-1.00 M22.60,-1.00L24.80,-1.00 M24.80,-1.00L27.10,-1.00 M27.10,-1.00L29.30,-1.00 M29.30,-1.00L29.30,-0.90 M29.30,-0.90L29.50,-0.60 M29.50,-0.60L27.20,-0.60 M27.20,-0.60L24.80,-0.60 M24.80,-0.60L22.50,-0.60 M22.50,-0.60L20.10,-0.60 M20.10,-0.60L20.10,-0.20 M20.10,-0.20L21.80,-0.20 M21.80,-0.20L23.50,-0.20 M23.50,-0.20L23.90,-0.40 M23.90,-0.40L24.70,-0.40 M24.70,-0.40L25.80,-0.40 M25.80,-0.40L26.00,-0.30 M26.00,-0.30L26.20,-0.20 M26.20,-0.20L27.90,-0.20 M27.90,-0.20L29.60,-0.20 M29.60,-0.20L29.60,0.10 M29.60,0.10L29.70,0.20 M29.70,0.20L28.10,0.20 M28.10,0.20L26.50,0.20 M26.50,0.20L26.30,-0.10 M26.30,-0.10L26.00,-0.30 M26.00,-0.30L25.80,-0.40 M25.80,-0.40L24.70,-0.40 M24.70,-0.40L23.90,-0.40 M23.90,-0.40L23.30,-0.10 M23.30,-0.10L23.20,0.00 M23.20,0.00L23.20,0.20 M23.20,0.20L21.60,0.20 M21.60,0.20L20.00,0.20 M20.00,0.20L20.00,0.30 M20.00,0.30L19.90,0.60 M19.90,0.60L21.50,0.60 M21.50,0.60L23.00,0.60 M23.00,0.60L23.00,0.90 M23.00,0.90L24.80,0.90 M24.80,0.90L26.60,0.90 M26.60,0.90L26.60,0.60 M26.60,0.60L28.10,0.60 M28.10,0.60L29.70,0.60 M29.70,0.60L29.70,1.00 M29.70,1.00L27.20,1.00 M27.20,1.00L24.80,1.00 M24.80,1.00L22.30,1.00 M22.30,1.00L19.90,1.00 M19.90,1.00L19.90,1.40 M19.90,1.40L22.30,1.40 M22.30,1.40L24.80,1.40 M24.80,1.40L27.20,1.40 M27.20,1.40L29.70,1.40 M29.70,1.40L29.70,1.80 M29.70,1.80L27.20,1.80 M27.20,1.80L24.80,1.80 M24.80,1.80L22.30,1.80 M22.30,1.80L19.90,1.80 M19.90,1.80L19.90,2.20 M19.90,2.20L22.30,2.20 M22.30,2.20L24.80,2.20 M24.80,2.20L27.20,2.20 M27.20,2.20L29.70,2.20 M29.70,2.20L29.70,2.60 M29.70,2.60L27.20,2.60 M27.20,2.60L24.80,2.60 M24.80,2.60L22.30,2.60 M22.30,2.60L19.90,2.60 M19.90,2.60L19.90,3.00 M19.90,3.00L21.50,3.00 M21.50,3.00L23.00,3.00 M23.00,3.00L23.00,3.10 M23.00,3.10L23.20,3.40 M23.20,3.40L21.60,3.40 M21.60,3.40L20.00,3.40 M20.00,3.40L20.10,3.80 M20.10,3.80L21.80,3.80 M21.80,3.80L23.50,3.80 M23.50,3.80L23.80,3.90 M23.80,3.90L25.60,4.00 M25.60,4.00L27.30,4.10 M27.30,4.10L29.10,4.20 M29.10,4.20L26.90,4.20 M26.90,4.20L24.60,4.20 M24.60,4.20L22.40,4.20 M22.40,4.20L20.20,4.20 M20.20,4.20L20.30,4.60 M20.30,4.60L22.50,4.60 M22.50,4.60L24.70,4.60 M24.70,4.60L26.90,4.60 M26.90,4.60L29.10,4.60 M29.10,4.60L29.10,5.00 M29.10,5.00L27.00,5.00 M27.00,5.00L24.80,5.00 M24.80,5.00L22.70,5.00 M22.70,5.00L20.60,5.00 M20.60,5.00L20.90,5.40 M20.90,5.40L22.90,5.40 M22.90,5.40L25.00,5.40 M25.00,5.40L27.00,5.40 M27.00,5.40L29.10,5.40 M29.10,5.40L29.10,5.80 M29.10,5.80L27.20,5.80 M27.20,5.80L25.20,5.80 M25.20,5.80L23.30,5.80 M23.30,5.80L21.40,5.80 M21.40,5.80L22.40,6.20 M22.40,6.20L24.60,6.20 M24.60,6.20L26.90,6.20 M26.90,6.20L29.10,6.20 M29.10,6.20L28.80,6.10 M28.80,6.10L29.10,6.20 M29.10,6.20L28.80,6.10 M32.40,-2.00L32.40,-2.00 M32.40,-2.00L32.10,-2.00 M32.10,-2.00L32.40,-2.00 M32.40,-2.00L32.10,-2.00 M32.10,-2.00L34.00,-2.00 M34.00,-2.00L35.90,-2.00 M35.90,-2.00L37.80,-2.00 M37.80,-2.00L37.80,-0.80 M37.80,-0.80L35.50,-0.80 M35.50,-0.80L33.20,-0.80 M33.20,-0.80L30.90,-0.80 M30.90,-0.80L30.70,0.40 M30.70,0.40L32.00,0.40 M32.00,0.40L33.40,0.40 M33.40,0.40L33.20,1.60 M33.20,1.60L31.90,1.60 M31.90,1.60L30.60,1.60 M30.60,1.60L30.60,2.80 M30.60,2.80L31.90,2.80 M31.90,2.80L33.20,2.80 M33.20,2.80L34.20,4.00 M34.20,4.00L32.60,4.00 M32.60,4.00L30.90,4.00 M30.90,4.00L31.60,5.20 M31.60,5.20L33.70,5.20 M33.70,5.20L35.80,5.20 M35.80,5.20L37.80,5.20 M37.80,5.20L35.90,4.50 M35.90,4.50L34.00,3.70 M34.00,3.70L33.70,3.30 M33.70,3.30L33.50,3.00 M33.50,3.00L33.40,1.10 M33.40,1.10L33.30,-0.80 M33.30,-0.80L33.20,-2.70 M33.20,-2.70L33.10,-2.70 M33.10,-2.70L33.10,-2.60 M33.10,-2.60L32.10,-2.30 M32.10,-2.30L32.00,-2.20 M32.00,-2.20L31.70,-2.10 M31.70,-2.10L31.50,-1.80 M31.50,-1.80L31.40,-1.80 M31.40,-1.80L31.20,-1.60 M31.20,-1.60L31.20,-1.40 M31.20,-1.40L31.00,-1.30 M31.00,-1.30L31.00,-1.20 M31.00,-1.20L30.80,-1.10 M30.80,-1.10L30.70,-0.80 M30.70,-0.80L30.70,-0.60 M30.70,-0.60L30.50,-0.40 M30.50,-0.40L30.50,0.00 M30.50,0.00L30.40,0.00 M30.40,0.00L30.40,0.40 M30.40,0.40L30.30,0.40 M30.30,0.40L30.30,1.80 M30.30,1.80L30.30,3.20 M30.30,3.20L30.40,3.20 M30.40,3.20L30.50,3.90 M30.50,3.90L30.70,4.20 M30.70,4.20L30.70,4.40 M30.70,4.40L30.80,4.70 M30.80,4.70L31.00,4.80 M31.00,4.80L31.00,4.90 M31.00,4.90L31.20,5.10 M31.20,5.10L31.20,5.20 M31.20,5.20L31.50,5.50 M31.50,5.50L31.60,5.50 M31.60,5.50L31.70,5.70 M31.70,5.70L31.80,5.70 M31.80,5.70L32.10,5.90 M32.10,5.90L32.90,6.20 M32.90,6.20L32.90,6.20 M32.90,6.20L33.60,6.30 M33.60,6.30L33.60,6.40 M33.60,6.40L35.80,6.40 M35.80,6.40L38.10,6.40 M38.10,6.40L38.10,5.10 M38.10,5.10L38.10,3.80 M38.10,3.80L36.20,3.80 M36.20,3.80L34.30,3.80 M34.30,3.80L34.30,3.70 M34.30,3.70L34.00,3.70 M34.00,3.70L33.70,3.30 M33.70,3.30L33.50,3.00 M33.50,3.00L33.40,1.00 M33.40,1.00L33.50,1.00 M33.50,1.00L33.50,0.70 M33.50,0.70L33.50,0.70 M33.50,0.70L33.70,0.30 M33.70,0.30L34.30,-0.10 M34.30,-0.10L34.50,-0.10 M34.50,-0.10L34.50,-0.20 M34.50,-0.20L36.30,-0.20 M36.30,-0.20L38.10,-0.20 M38.10,-0.20L38.10,-1.50 M38.10,-1.50L38.10,-2.80 M38.10,-2.80L37.50,-2.80 M37.50,-2.80L37.50,-2.80 M37.50,-2.80L35.70,-2.80 M35.70,-2.80L33.90,-2.80 M33.90,-2.80L33.90,-2.80 M33.90,-2.80L33.20,-2.70 M33.20,-2.70L33.10,-2.60 M33.10,-2.60L34.70,-2.60 M34.70,-2.60L36.40,-2.60 M36.40,-2.60L38.10,-2.60 M38.10,-2.60L38.10,-2.20 M38.10,-2.20L36.10,-2.20 M36.10,-2.20L34.10,-2.20 M34.10,-2.20L32.00,-2.20 M32.00,-2.20L31.50,-1.80 M31.50,-1.80L33.70,-1.80 M33.70,-1.80L35.90,-1.80 M35.90,-1.80L38.10,-1.80 M38.10,-1.80L38.10,-1.40 M38.10,-1.40L35.80,-1.40 M35.80,-1.40L33.40,-1.40 M33.40,-1.40L31.10,-1.40 M31.10,-1.40L31.00,-1.20 M31.00,-1.20L30.80,-1.00 M30.80,-1.00L33.20,-1.00 M33.20,-1.00L35.70,-1.00 M35.70,-1.00L38.10,-1.00 M38.10,-1.00L38.10,-0.60 M38.10,-0.60L35.60,-0.60 M35.60,-0.60L33.10,-0.60 M33.10,-0.60L30.70,-0.60 M30.70,-0.60L30.70,-0.60 M30.70,-0.60L30.50,-0.20 M30.50,-0.20L32.40,-0.20 M32.40,-0.20L34.30,-0.20 M34.30,-0.20L36.20,-0.20 M36.20,-0.20L38.10,-0.20 M38.10,-0.20L36.30,-0.20 M36.30,-0.20L34.50,-0.20 M34.50,-0.20L34.30,-0.10 M34.30,-0.10L33.80,0.20 M33.80,0.20L32.10,0.20 M32.10,0.20L30.40,0.20 M30.40,0.20L30.40,0.40 M30.40,0.40L30.30,0.60 M30.30,0.60L32.00,0.60 M32.00,0.60L33.60,0.60 M33.60,0.60L33.50,0.70 M33.50,0.70L33.50,1.00 M33.50,1.00L31.90,1.00 M31.90,1.00L30.30,1.00 M30.30,1.00L30.30,1.40 M30.30,1.40L31.90,1.40 M31.90,1.40L33.40,1.40 M33.40,1.40L33.40,1.80 M33.40,1.80L31.90,1.80 M31.90,1.80L30.30,1.80 M30.30,1.80L30.30,2.20 M30.30,2.20L31.90,2.20 M31.90,2.20L33.50,2.20 M33.50,2.20L33.50,2.60 M33.50,2.60L31.90,2.60 M31.90,2.60L30.30,2.60 M30.30,2.60L30.30,3.00 M30.30,3.00L31.90,3.00 M31.90,3.00L33.50,3.00 M33.50,3.00L33.70,3.30 M33.70,3.30L33.70,3.40 M33.70,3.40L32.10,3.40 M32.10,3.40L30.40,3.40 M30.40,3.40L30.50,3.80 M30.50,3.80L32.40,3.80 M32.40,3.80L34.30,3.80 M34.30,3.80L34.30,3.80 M34.30,3.80L36.20,4.00 M36.20,4.00L38.10,4.20 M38.10,4.20L35.60,4.20 M35.60,4.20L33.10,4.20 M33.10,4.20L30.70,4.20 M30.70,4.20L30.80,4.60 M30.80,4.60L33.20,4.60 M33.20,4.60L35.70,4.60 M35.70,4.60L38.10,4.60 M38.10,4.60L38.10,5.00 M38.10,5.00L35.70,5.00 M35.70,5.00L33.40,5.00 M33.40,5.00L31.00,5.00 M31.00,5.00L31.20,5.10 M31.20,5.10L31.40,5.40 M31.40,5.40L33.60,5.40 M33.60,5.40L35.90,5.40 M35.90,5.40L38.10,5.40 M38.10,5.40L38.10,5.80 M38.10,5.80L36.00,5.80 M36.00,5.80L34.00,5.80 M34.00,5.80L31.90,5.80 M31.90,5.80L32.90,6.20 M32.90,6.20L34.60,6.20 M34.60,6.20L36.40,6.20 M36.40,6.20L38.10,6.20 M38.10,6.20L37.80,6.00 M37.80,6.00L38.10,6.20 M38.10,6.20L37.80,6.00" fill="none" stroke="#1c4839" stroke-width=".14" stroke-linecap="round"/><path d="M-33.70,-0.30L-33.70,-0.30 M-33.70,-0.30L-34.00,-0.30 M-34.00,-0.30L-33.70,-0.30 M-33.70,-0.30L-34.00,-0.30 M-34.00,-0.30L-32.00,-0.30 M-32.00,-0.30L-29.90,-0.30 M-29.90,-0.30L-30.00,0.90 M-30.00,0.90L-32.00,0.90 M-32.00,0.90L-34.10,0.90 M-34.10,0.90L-33.70,-1.20 M-33.70,-1.20L-34.10,-1.00 M-34.10,-1.00L-34.20,-0.80 M-34.20,-0.80L-34.30,-0.80 M-34.30,-0.80L-34.30,1.20 M-34.30,1.20L-32.30,1.20 M-32.30,1.20L-30.20,1.20 M-30.20,1.20L-30.20,1.20 M-30.20,1.20L-29.90,1.10 M-29.90,1.10L-29.70,0.90 M-29.70,0.90L-29.70,-1.20 M-29.70,-1.20L-31.70,-1.20 M-31.70,-1.20L-33.70,-1.20 M-33.70,-1.20L-34.10,-1.00 M-34.10,-1.00L-31.90,-1.00 M-31.90,-1.00L-29.70,-1.00 M-29.70,-1.00L-29.70,-0.60 M-29.70,-0.60L-32.00,-0.60 M-32.00,-0.60L-34.30,-0.60 M-34.30,-0.60L-34.30,-0.20 M-34.30,-0.20L-32.00,-0.20 M-32.00,-0.20L-29.70,-0.20 M-29.70,-0.20L-29.70,0.20 M-29.70,0.20L-32.00,0.20 M-32.00,0.20L-34.30,0.20 M-34.30,0.20L-34.30,0.60 M-34.30,0.60L-32.00,0.60 M-32.00,0.60L-29.70,0.60 M-29.70,0.60L-29.80,1.00 M-29.80,1.00L-32.10,1.00 M-32.10,1.00L-34.30,1.00 M-34.30,1.00L-34.10,0.90 M-34.10,0.90L-34.30,1.00 M-34.30,1.00L-34.10,0.90" fill="none" stroke="#7be88a" stroke-width=".14" stroke-linecap="round"/></svg>